%FSLAX44Y44*%
%MOMM*%
G71*
G01*
G75*
G04 Layer_Physical_Order=1*
G04 Layer_Color=255*
%ADD10R,1.5000X1.0000*%
%ADD11R,0.9000X1.0000*%
%ADD12R,1.0000X0.9000*%
%ADD13R,0.6000X1.3000*%
%ADD14R,2.2000X2.0000*%
%ADD15R,3.0000X4.0000*%
%ADD16R,10.5000X10.4000*%
%ADD17R,1.1000X3.5000*%
%ADD18R,3.0000X5.0000*%
%ADD19R,2.5000X5.7000*%
%ADD20R,1.6000X3.0000*%
%ADD21R,5.7000X2.5000*%
%ADD22R,1.6000X0.5000*%
%ADD23R,0.5000X1.6000*%
%ADD24R,1.0000X1.5000*%
%ADD25R,1.8000X2.0000*%
%ADD26C,1.0000*%
%ADD27C,0.5000*%
%ADD28C,0.6000*%
%ADD29C,0.4000*%
%ADD30C,7.0000*%
%ADD31C,2.5000*%
%ADD32C,3.0000*%
%ADD33C,2.0000*%
%ADD34R,1.6000X1.6000*%
%ADD35C,1.6000*%
%ADD36R,2.0000X2.0000*%
%ADD37C,1.2000*%
%ADD38C,1.2700*%
G36*
X961701Y679485D02*
X961407Y675000D01*
X961780Y669310D01*
X962892Y663717D01*
X964725Y658318D01*
X967247Y653203D01*
X970415Y648462D01*
X974175Y644175D01*
X978462Y640415D01*
X983203Y637247D01*
X988318Y634725D01*
X993717Y632892D01*
X999310Y631780D01*
X1005000Y631407D01*
X1009485Y631701D01*
X1010412Y630832D01*
Y54168D01*
X1009485Y53299D01*
X1005000Y53593D01*
X999310Y53220D01*
X993717Y52108D01*
X988318Y50275D01*
X983203Y47753D01*
X978462Y44585D01*
X974175Y40825D01*
X970415Y36538D01*
X967247Y31797D01*
X964725Y26682D01*
X962892Y21283D01*
X961780Y15690D01*
X961407Y10000D01*
X961701Y5515D01*
X960832Y4588D01*
X54168D01*
X53299Y5515D01*
X53593Y10000D01*
X53220Y15690D01*
X52108Y21283D01*
X50275Y26682D01*
X47753Y31797D01*
X44585Y36538D01*
X40825Y40825D01*
X36538Y44585D01*
X31797Y47753D01*
X26682Y50275D01*
X21283Y52108D01*
X15690Y53220D01*
X10000Y53593D01*
X5515Y53299D01*
X4588Y54168D01*
Y630832D01*
X5515Y631701D01*
X10000Y631407D01*
X15690Y631780D01*
X21283Y632892D01*
X26682Y634725D01*
X31797Y637247D01*
X36538Y640415D01*
X40825Y644175D01*
X44585Y648462D01*
X47753Y653203D01*
X50275Y658318D01*
X52108Y663717D01*
X53220Y669310D01*
X53593Y675000D01*
X53299Y679485D01*
X54168Y680412D01*
X960832D01*
X961701Y679485D01*
D02*
G37*
%LPC*%
G36*
X90900Y256470D02*
X73670D01*
Y234240D01*
X90900D01*
Y256470D01*
D02*
G37*
G36*
X631500Y242500D02*
X618270D01*
Y230270D01*
X631500D01*
Y242500D01*
D02*
G37*
G36*
X110670Y256470D02*
X93440D01*
Y234240D01*
X110670D01*
Y256470D01*
D02*
G37*
G36*
X830500Y260500D02*
X823270D01*
Y253770D01*
X830500D01*
Y260500D01*
D02*
G37*
G36*
X803230D02*
X796000D01*
Y253770D01*
X803230D01*
Y260500D01*
D02*
G37*
G36*
X631500Y227730D02*
X618270D01*
Y215500D01*
X631500D01*
Y227730D01*
D02*
G37*
G36*
X615730D02*
X602500D01*
Y215500D01*
X615730D01*
Y227730D01*
D02*
G37*
G36*
X587730Y225230D02*
X580500D01*
Y218500D01*
X587730D01*
Y225230D01*
D02*
G37*
G36*
X615730Y242500D02*
X602500D01*
Y230270D01*
X615730D01*
Y242500D01*
D02*
G37*
G36*
X597500Y225230D02*
X590270D01*
Y218500D01*
X597500D01*
Y225230D01*
D02*
G37*
G36*
X90900Y281240D02*
X73670D01*
Y259010D01*
X90900D01*
Y281240D01*
D02*
G37*
G36*
X317500Y344730D02*
X310770D01*
Y337500D01*
X317500D01*
Y344730D01*
D02*
G37*
G36*
X219920Y344670D02*
X213190D01*
Y337440D01*
X219920D01*
Y344670D01*
D02*
G37*
G36*
X881000Y664556D02*
X205000D01*
X203303Y664333D01*
X202648Y664061D01*
X201722Y663678D01*
X200364Y662636D01*
X175650Y637922D01*
X174627Y638232D01*
X171000Y638590D01*
X167373Y638232D01*
X163886Y637174D01*
X160672Y635457D01*
X157855Y633145D01*
X155543Y630328D01*
X153826Y627114D01*
X152768Y623627D01*
X152410Y620000D01*
X152768Y616373D01*
X153826Y612886D01*
X155543Y609672D01*
X157855Y606855D01*
X160672Y604543D01*
X162427Y603606D01*
Y588500D01*
X157500D01*
Y551500D01*
X162427D01*
Y528500D01*
X152500D01*
Y481500D01*
X189500D01*
Y528500D01*
X179573D01*
Y551500D01*
X180500D01*
Y588500D01*
X179573D01*
Y603606D01*
X181328Y604543D01*
X184145Y606855D01*
X186457Y609672D01*
X188174Y612886D01*
X189232Y616373D01*
X189590Y620000D01*
X189232Y623627D01*
X188174Y627114D01*
X186506Y630235D01*
X207716Y651444D01*
X509392D01*
Y611500D01*
X505118D01*
Y628000D01*
X504652Y630341D01*
X503326Y632326D01*
X493326Y642326D01*
X491341Y643652D01*
X489000Y644118D01*
X456000D01*
X453659Y643652D01*
X451674Y642326D01*
X434674Y625326D01*
X433348Y623341D01*
X432882Y621000D01*
Y478000D01*
X430500D01*
Y456000D01*
X435303D01*
Y450528D01*
X434612Y450242D01*
X431792Y448078D01*
X429628Y445258D01*
X429355Y444600D01*
X428085D01*
X427812Y445258D01*
X425648Y448078D01*
X422828Y450242D01*
X419544Y451603D01*
X416020Y452066D01*
X412496Y451603D01*
X409212Y450242D01*
X406392Y448078D01*
X404228Y445258D01*
X403363Y443171D01*
X402118Y443419D01*
Y456000D01*
X406500D01*
Y478000D01*
X406500D01*
Y478112D01*
X407398Y479010D01*
X409500D01*
Y478000D01*
X409500D01*
Y456000D01*
X426500D01*
Y478000D01*
X426500D01*
Y478112D01*
X427398Y479010D01*
X427420D01*
Y506010D01*
X402420D01*
Y479010D01*
X402420D01*
Y478898D01*
X401522Y478000D01*
X389500D01*
Y456000D01*
X389883D01*
Y425000D01*
X389883Y425000D01*
X389883D01*
X390348Y422659D01*
X391674Y420674D01*
X398674Y413674D01*
X400659Y412348D01*
X403000Y411883D01*
X484000D01*
X486341Y412348D01*
X488326Y413674D01*
X503326Y428674D01*
X504652Y430659D01*
X504652Y430659D01*
X504652Y430659D01*
X505118Y433000D01*
Y456000D01*
X507500D01*
Y478000D01*
X505118D01*
Y502010D01*
X510000D01*
Y519010D01*
X488000D01*
Y502010D01*
X492882D01*
Y478000D01*
X490500D01*
Y456000D01*
X492882D01*
Y435534D01*
X481493Y424145D01*
X480865Y424405D01*
X480320Y424950D01*
X480320Y425016D01*
X480320Y425016D01*
X480320D01*
Y443298D01*
X483326Y446304D01*
X484121Y447494D01*
X484652Y448289D01*
X485118Y450630D01*
Y456000D01*
X487500D01*
Y478000D01*
X480420D01*
Y479010D01*
X480420D01*
Y506010D01*
X455420D01*
Y488661D01*
X454674Y487916D01*
X453348Y485931D01*
X452882Y483590D01*
Y478000D01*
X450500D01*
Y456000D01*
X467500D01*
Y478000D01*
X467500D01*
Y478112D01*
X468398Y479010D01*
X470500D01*
Y478000D01*
X470500D01*
Y456000D01*
X472882D01*
Y453164D01*
X471669Y451950D01*
X453320D01*
Y447093D01*
X452117Y446685D01*
X451048Y448078D01*
X448228Y450242D01*
X447538Y450528D01*
Y464580D01*
X447500Y464769D01*
Y478000D01*
X445118D01*
Y618466D01*
X458534Y631883D01*
X464208D01*
X464394Y630626D01*
X461847Y629854D01*
X459068Y628368D01*
X456632Y626368D01*
X454632Y623932D01*
X453146Y621153D01*
X452231Y618137D01*
X451923Y615000D01*
X452231Y611864D01*
X453146Y608847D01*
X454632Y606068D01*
X456632Y603632D01*
X459068Y601632D01*
X459347Y601483D01*
Y596010D01*
X455420D01*
Y569010D01*
X480420D01*
Y576953D01*
X488000D01*
Y574500D01*
Y557570D01*
X509392D01*
Y555323D01*
X508639Y554570D01*
X488000D01*
Y537570D01*
Y522010D01*
X510000D01*
Y537570D01*
Y540846D01*
X510216Y540889D01*
X512035Y542105D01*
X518965Y549035D01*
X520181Y550854D01*
X520608Y553000D01*
Y651444D01*
X643392D01*
Y611500D01*
X640117D01*
Y623000D01*
X639652Y625341D01*
X638326Y627326D01*
X625326Y640326D01*
X623341Y641652D01*
X621000Y642117D01*
X591000D01*
X588659Y641652D01*
X586674Y640326D01*
X577674Y631326D01*
X576348Y629341D01*
X575882Y627000D01*
Y595000D01*
Y590000D01*
Y509534D01*
X568674Y502326D01*
X567348Y500341D01*
X566883Y498000D01*
Y478000D01*
X564500D01*
Y456000D01*
X570093D01*
Y450528D01*
X569402Y450242D01*
X566582Y448078D01*
X564418Y445258D01*
X564145Y444600D01*
X562875D01*
X562602Y445258D01*
X560438Y448078D01*
X557618Y450242D01*
X554334Y451603D01*
X550810Y452066D01*
X547286Y451603D01*
X544002Y450242D01*
X541182Y448078D01*
X539018Y445258D01*
X538363Y443678D01*
X537118Y443926D01*
Y456000D01*
X541500D01*
Y478000D01*
X541500D01*
Y478112D01*
X542398Y479010D01*
X544500D01*
Y478000D01*
X544500D01*
Y456000D01*
X561500D01*
Y478000D01*
X561500D01*
Y478300D01*
X562210Y479010D01*
X562210D01*
Y506010D01*
X537210D01*
Y479010D01*
X537210D01*
Y478898D01*
X536312Y478000D01*
X524500D01*
Y456000D01*
X524883D01*
Y427000D01*
X524883Y427000D01*
X524883D01*
X525348Y424659D01*
X526674Y422674D01*
X536674Y412674D01*
D01*
X536674D01*
X536674Y412674D01*
X536674Y412674D01*
X536674D01*
D01*
X536674D01*
X536674Y412674D01*
Y412674D01*
X536674Y412674D01*
Y412674D01*
X538659Y411348D01*
X541000Y410882D01*
X619000D01*
X621341Y411348D01*
X623326Y412674D01*
X623326Y412674D01*
X623326Y412674D01*
X638326Y427674D01*
X639121Y428864D01*
X639652Y429659D01*
X640118Y432000D01*
Y456000D01*
X642500D01*
Y478000D01*
X640118D01*
Y502010D01*
X645000D01*
Y519010D01*
X623000D01*
Y502010D01*
X627882D01*
Y478000D01*
X625500D01*
Y456000D01*
X627882D01*
Y434534D01*
X616466Y423118D01*
X543534D01*
X537118Y429534D01*
Y432975D01*
X538363Y433222D01*
X539018Y431642D01*
X541182Y428822D01*
X544002Y426658D01*
X547286Y425298D01*
X550810Y424833D01*
X554334Y425298D01*
X557618Y426658D01*
X560438Y428822D01*
X562602Y431642D01*
X562875Y432300D01*
X564145D01*
X564418Y431642D01*
X566582Y428822D01*
X569402Y426658D01*
X572686Y425298D01*
X576210Y424833D01*
X579734Y425298D01*
X583018Y426658D01*
X585838Y428822D01*
X586907Y430215D01*
X588110Y429807D01*
Y424950D01*
X615110D01*
Y443298D01*
X618326Y446514D01*
X619652Y448499D01*
X619652Y448499D01*
X619652Y448499D01*
X620118Y450840D01*
Y456000D01*
X622500D01*
Y478000D01*
X615210D01*
Y479010D01*
X615210D01*
Y506010D01*
X590210D01*
Y488661D01*
X588674Y487126D01*
X587348Y485141D01*
X586883Y482800D01*
Y478000D01*
X584500D01*
Y456000D01*
X601500D01*
Y478000D01*
X601500D01*
Y478112D01*
X602398Y479010D01*
X605500D01*
Y478000D01*
X605500D01*
Y456000D01*
X607882D01*
Y453374D01*
X606459Y451950D01*
X588110D01*
Y447093D01*
X586907Y446685D01*
X585838Y448078D01*
X583018Y450242D01*
X582328Y450528D01*
Y463790D01*
X581862Y466131D01*
X581500Y466673D01*
Y478000D01*
X579118D01*
Y495466D01*
X586326Y502674D01*
X586326Y502674D01*
X586326Y502674D01*
X587652Y504659D01*
X588118Y507000D01*
Y590000D01*
Y608159D01*
X589350Y608467D01*
X590632Y606068D01*
X592632Y603632D01*
X594697Y601937D01*
Y596010D01*
X590210D01*
Y569010D01*
X615210D01*
Y576953D01*
X623000D01*
Y574500D01*
X623000D01*
Y557570D01*
X643392D01*
Y554570D01*
X623000D01*
Y537570D01*
Y522010D01*
X645000D01*
Y537570D01*
Y540462D01*
X645070D01*
X647216Y540889D01*
X649035Y542105D01*
X652965Y546035D01*
X654181Y547854D01*
X654608Y550000D01*
Y651444D01*
X777392D01*
Y611500D01*
X773118D01*
Y623000D01*
X772652Y625341D01*
X772121Y626136D01*
X771326Y627326D01*
X758326Y640326D01*
X756341Y641652D01*
X754000Y642117D01*
X724000D01*
X721659Y641652D01*
X719674Y640326D01*
X711674Y632326D01*
X710348Y630341D01*
X709883Y628000D01*
Y618000D01*
X709883D01*
X709500D01*
X708984Y618000D01*
X708984Y618000D01*
Y618000D01*
X702270D01*
Y606997D01*
Y596000D01*
X708984D01*
X709883Y595102D01*
Y507534D01*
X701674Y499326D01*
X700348Y497341D01*
X699883Y495000D01*
Y478000D01*
X697500D01*
Y478000D01*
X697398D01*
X697000Y478398D01*
Y479010D01*
D01*
D01*
Y479010D01*
X697000D01*
Y506010D01*
X672000D01*
Y479010D01*
X672000D01*
Y478898D01*
X671102Y478000D01*
X659500D01*
Y456000D01*
X659883D01*
Y427000D01*
X659883Y427000D01*
X659883D01*
X660348Y424659D01*
X661674Y422674D01*
X672674Y411674D01*
X674659Y410348D01*
X677000Y409883D01*
X753000D01*
X755341Y410348D01*
X757326Y411674D01*
X757326Y411674D01*
X757326Y411674D01*
X770326Y424674D01*
X771652Y426659D01*
X772118Y429000D01*
X772118Y429000D01*
X772118Y429000D01*
Y429000D01*
Y456000D01*
X774500D01*
Y478000D01*
X772118D01*
Y502010D01*
X778000D01*
Y519010D01*
X756000D01*
Y502010D01*
X759883D01*
Y478000D01*
X757500D01*
Y456000D01*
X759883D01*
Y431534D01*
X750466Y422118D01*
X679534D01*
X672118Y429534D01*
Y432467D01*
X673363Y432715D01*
X673808Y431642D01*
X675972Y428822D01*
X678792Y426658D01*
X682076Y425298D01*
X685600Y424833D01*
X689124Y425298D01*
X692408Y426658D01*
X695228Y428822D01*
X697392Y431642D01*
X697665Y432300D01*
X698935D01*
X699208Y431642D01*
X701372Y428822D01*
X704192Y426658D01*
X707476Y425298D01*
X711000Y424833D01*
X714524Y425298D01*
X717808Y426658D01*
X720628Y428822D01*
X721697Y430215D01*
X722900Y429807D01*
Y424950D01*
X749900D01*
Y443298D01*
X750326Y443724D01*
X750326Y443724D01*
X750326Y443724D01*
X751652Y445709D01*
X752118Y448050D01*
Y456000D01*
X754500D01*
Y478000D01*
X750000D01*
Y479010D01*
X750000D01*
Y506010D01*
X725000D01*
Y488661D01*
X721674Y485336D01*
X720348Y483351D01*
X719883Y481010D01*
Y478000D01*
X717500D01*
Y465259D01*
X716285Y464891D01*
X715326Y466326D01*
X714500Y467152D01*
Y478000D01*
X712118D01*
Y492466D01*
X720326Y500674D01*
X720326Y500674D01*
X720326Y500674D01*
X721652Y502659D01*
X722118Y505000D01*
Y608159D01*
X723350Y608467D01*
X724632Y606068D01*
X726632Y603632D01*
X729068Y601632D01*
X729427Y601440D01*
Y596010D01*
X725000D01*
Y569010D01*
X750000D01*
Y576953D01*
X756000D01*
Y574500D01*
X756000D01*
Y557570D01*
X777392D01*
Y554570D01*
X756000D01*
Y537570D01*
Y522010D01*
X778000D01*
Y537570D01*
Y540462D01*
X778070D01*
X780216Y540889D01*
X782035Y542105D01*
X786965Y547035D01*
X788181Y548854D01*
X788608Y551000D01*
Y651444D01*
X878284D01*
X886437Y643291D01*
X885951Y642117D01*
X863000D01*
X860659Y641652D01*
X858674Y640326D01*
X847674Y629326D01*
X846348Y627341D01*
X845882Y625000D01*
Y618000D01*
X840270D01*
Y606997D01*
Y596000D01*
X845882D01*
Y511534D01*
X837674Y503326D01*
X836348Y501341D01*
X835882Y499000D01*
Y477000D01*
X833500D01*
Y455000D01*
X839672D01*
Y450528D01*
X838982Y450242D01*
X836162Y448078D01*
X833998Y445258D01*
X833725Y444600D01*
X832455D01*
X832182Y445258D01*
X830018Y448078D01*
X827198Y450242D01*
X823914Y451603D01*
X820390Y452066D01*
X816866Y451603D01*
X813582Y450242D01*
X810762Y448078D01*
X808598Y445258D01*
X808363Y444692D01*
X807118Y444940D01*
Y455000D01*
X811500D01*
Y477000D01*
X794500D01*
Y455000D01*
X794883D01*
Y427360D01*
X795348Y425019D01*
X796674Y423034D01*
X797674Y422034D01*
X797674Y422034D01*
X797674Y422034D01*
X808444Y411264D01*
X810429Y409938D01*
X812770Y409473D01*
X894050D01*
X896391Y409938D01*
X898376Y411264D01*
X898376Y411264D01*
X898376Y411264D01*
X906326Y419214D01*
X907652Y421199D01*
X908118Y423540D01*
X908118Y423540D01*
X908118Y423540D01*
Y423540D01*
Y455000D01*
X910500D01*
Y477000D01*
X907788D01*
Y502010D01*
X912670D01*
Y519010D01*
X890670D01*
Y502010D01*
X895553D01*
Y477000D01*
X893500D01*
Y455000D01*
X895882D01*
Y426074D01*
X891516Y421708D01*
X815304D01*
X807118Y429894D01*
Y431960D01*
X808363Y432208D01*
X808598Y431642D01*
X810762Y428822D01*
X813582Y426658D01*
X816866Y425298D01*
X820390Y424833D01*
X823914Y425298D01*
X827198Y426658D01*
X830018Y428822D01*
X832182Y431642D01*
X832455Y432300D01*
X833725D01*
X833998Y431642D01*
X836162Y428822D01*
X838982Y426658D01*
X842266Y425298D01*
X845790Y424833D01*
X849314Y425298D01*
X852598Y426658D01*
X855418Y428822D01*
X856487Y430215D01*
X857690Y429807D01*
Y424950D01*
X884690D01*
Y443298D01*
X886326Y444934D01*
X887652Y446919D01*
X888118Y449260D01*
X888118Y449260D01*
X888118Y449260D01*
Y449260D01*
Y455000D01*
X890500D01*
Y477000D01*
X873500D01*
Y455000D01*
X875882D01*
Y451950D01*
X857690D01*
Y447093D01*
X856487Y446685D01*
X855418Y448078D01*
X852598Y450242D01*
X851908Y450528D01*
Y462210D01*
X851442Y464551D01*
X851142Y465000D01*
X850500Y465961D01*
Y477000D01*
X848118D01*
Y496466D01*
X856326Y504674D01*
X856326Y504674D01*
X856326Y504674D01*
X857652Y506659D01*
X858118Y509000D01*
Y606288D01*
X859350Y606597D01*
X859632Y606068D01*
X861632Y603632D01*
X864068Y601632D01*
X864427Y601440D01*
Y596010D01*
X859790D01*
Y569010D01*
X884790D01*
Y576953D01*
X891000D01*
Y574570D01*
X890670D01*
Y557570D01*
X912639D01*
X913125Y556397D01*
X911298Y554570D01*
X890670D01*
Y537570D01*
Y522010D01*
X912670D01*
Y537570D01*
Y539593D01*
X913767Y539737D01*
X914422Y540009D01*
X915348Y540392D01*
X916706Y541434D01*
X924636Y549364D01*
X925678Y550722D01*
X926141Y551840D01*
X926333Y552303D01*
X926556Y554000D01*
Y619000D01*
X926397Y620211D01*
X927562Y620717D01*
X927632Y620632D01*
X930068Y618632D01*
X932444Y617362D01*
Y433716D01*
X908364Y409636D01*
X907322Y408278D01*
X906939Y407352D01*
X906667Y406697D01*
X906444Y405000D01*
Y361000D01*
X904500D01*
Y356556D01*
X902000D01*
X900303Y356333D01*
X899840Y356141D01*
X898722Y355678D01*
X897364Y354636D01*
X879364Y336636D01*
X878322Y335278D01*
X878080Y334694D01*
X877667Y333697D01*
X877444Y332000D01*
Y323997D01*
X877192Y323892D01*
X874372Y321728D01*
X872208Y318908D01*
X871935Y318250D01*
X870665D01*
X870392Y318908D01*
X868228Y321728D01*
X865408Y323892D01*
X862124Y325252D01*
X858600Y325717D01*
X855076Y325252D01*
X851792Y323892D01*
X848972Y321728D01*
X846808Y318908D01*
X845448Y315624D01*
X844984Y312100D01*
X845448Y308576D01*
X846808Y305292D01*
X848972Y302472D01*
X851792Y300308D01*
X855076Y298948D01*
X858600Y298484D01*
X862124Y298948D01*
X865408Y300308D01*
X868228Y302472D01*
X870392Y305292D01*
X870665Y305950D01*
X871935D01*
X872208Y305292D01*
X874372Y302472D01*
X877192Y300308D01*
X880476Y298948D01*
X884000Y298484D01*
X887524Y298948D01*
X890808Y300308D01*
X893628Y302472D01*
X894697Y303865D01*
X895900Y303457D01*
Y298600D01*
X922900D01*
Y325600D01*
X895900D01*
Y320743D01*
X894697Y320335D01*
X893628Y321728D01*
X890808Y323892D01*
X890556Y323997D01*
Y329285D01*
X903327Y342055D01*
X904500Y341569D01*
Y339000D01*
X921500D01*
Y361000D01*
X919556D01*
Y402284D01*
X943636Y426364D01*
X944678Y427722D01*
X945141Y428840D01*
X945333Y429303D01*
X945556Y431000D01*
Y617362D01*
X947932Y618632D01*
X950368Y620632D01*
X952368Y623068D01*
X953854Y625847D01*
X954769Y628863D01*
X955077Y632000D01*
X954769Y635137D01*
X953854Y638153D01*
X952368Y640932D01*
X950368Y643369D01*
X947932Y645368D01*
X945153Y646854D01*
X942137Y647768D01*
X939000Y648077D01*
X935863Y647768D01*
X932847Y646854D01*
X930068Y645368D01*
X927632Y643369D01*
X925632Y640932D01*
X924146Y638153D01*
X923232Y635137D01*
X922923Y632000D01*
X923232Y628863D01*
X924138Y625876D01*
X923622Y625567D01*
X923024Y625248D01*
X885636Y662636D01*
X884278Y663678D01*
X883352Y664061D01*
X882697Y664333D01*
X881000Y664556D01*
D02*
G37*
G36*
X941500Y348730D02*
X934270D01*
Y339000D01*
X941500D01*
Y348730D01*
D02*
G37*
G36*
X931730D02*
X924500D01*
Y339000D01*
X931730D01*
Y348730D01*
D02*
G37*
G36*
X128900Y324310D02*
X114170D01*
Y293580D01*
X128900D01*
Y324310D01*
D02*
G37*
G36*
X110670Y281240D02*
X93440D01*
Y259010D01*
X110670D01*
Y281240D01*
D02*
G37*
G36*
X146170Y324310D02*
X131440D01*
Y293580D01*
X146170D01*
Y324310D01*
D02*
G37*
G36*
Y357580D02*
X131440D01*
Y326850D01*
X146170D01*
Y357580D01*
D02*
G37*
G36*
X128900D02*
X114170D01*
Y326850D01*
X128900D01*
Y357580D01*
D02*
G37*
G36*
X799500Y183500D02*
X792270D01*
Y176770D01*
X799500D01*
Y183500D01*
D02*
G37*
G36*
X705730Y56000D02*
X696000D01*
Y48770D01*
X705730D01*
Y56000D01*
D02*
G37*
G36*
X673000D02*
X663270D01*
Y48770D01*
X673000D01*
Y56000D01*
D02*
G37*
G36*
X718000D02*
X708270D01*
Y48770D01*
X718000D01*
Y56000D01*
D02*
G37*
G36*
X617000Y203500D02*
X572270D01*
Y191998D01*
Y180500D01*
X614500D01*
Y171000D01*
Y163000D01*
Y155000D01*
Y147000D01*
Y139000D01*
Y131000D01*
Y123000D01*
Y115000D01*
Y107000D01*
Y99000D01*
Y93500D01*
X580270D01*
Y81997D01*
Y70500D01*
X617000D01*
Y91000D01*
X637500D01*
Y99000D01*
Y107000D01*
Y107392D01*
X640887D01*
X641975Y105975D01*
X644032Y104396D01*
X646429Y103404D01*
X649000Y103065D01*
X651571Y103404D01*
X653967Y104396D01*
X656025Y105975D01*
X657604Y108032D01*
X658596Y110429D01*
X658935Y113000D01*
X658596Y115571D01*
X657604Y117967D01*
X656025Y120025D01*
X653967Y121604D01*
X651571Y122596D01*
X649000Y122935D01*
X649457Y123392D01*
X660677D01*
X668392Y115677D01*
Y114500D01*
X665500D01*
Y98500D01*
X665500Y98500D01*
X665500Y97500D01*
X665500D01*
Y88931D01*
X658035Y81465D01*
X656819Y79646D01*
X656392Y77500D01*
Y77000D01*
X651000D01*
Y60000D01*
X673000D01*
Y77000D01*
X671090D01*
X670604Y78173D01*
X673931Y81500D01*
X682500D01*
Y81500D01*
X682500D01*
X682500Y81500D01*
X683500D01*
Y81500D01*
X692069D01*
X696167Y77403D01*
X696000Y77000D01*
X696000D01*
X696000Y77000D01*
Y60000D01*
X718000D01*
Y77000D01*
X711944D01*
X710965Y78465D01*
X700500Y88931D01*
Y97500D01*
D01*
Y97500D01*
X700500Y97500D01*
Y98500D01*
X700500D01*
Y114500D01*
X697608D01*
Y117000D01*
X697608Y117000D01*
X697608Y117000D01*
Y117000D01*
X697608D01*
X697608Y117000D01*
X697181Y119146D01*
X695965Y120965D01*
X675965Y140965D01*
X674146Y142181D01*
X672000Y142608D01*
X637500D01*
Y143000D01*
Y147000D01*
Y155000D01*
Y163000D01*
Y171000D01*
Y171392D01*
X652677D01*
X723535Y100535D01*
D01*
X723535D01*
X723535Y100535D01*
X723535Y100535D01*
X723535D01*
D01*
X723535D01*
X723535Y100535D01*
Y100535D01*
X723535Y100535D01*
Y100535D01*
X725354Y99319D01*
X727500Y98892D01*
X775177D01*
X783646Y90423D01*
X783160Y89250D01*
X759000D01*
Y69250D01*
X809794D01*
Y62066D01*
X808715Y60986D01*
X806136Y61768D01*
X803000Y62077D01*
X799863Y61768D01*
X796847Y60854D01*
X794068Y59368D01*
X791631Y57368D01*
X789632Y54932D01*
X788146Y52153D01*
X787232Y49137D01*
X786923Y46000D01*
X787232Y42863D01*
X788146Y39847D01*
X789632Y37068D01*
X791631Y34632D01*
X794068Y32632D01*
X796847Y31146D01*
X799863Y30231D01*
X803000Y29923D01*
X806136Y30231D01*
X809153Y31146D01*
X811932Y32632D01*
X814368Y34632D01*
X816368Y37068D01*
X817854Y39847D01*
X818768Y42863D01*
X819077Y46000D01*
X818768Y49137D01*
X817986Y51715D01*
X820986Y54714D01*
X822028Y56072D01*
X822683Y57653D01*
X822906Y59350D01*
Y61304D01*
X824109Y61712D01*
X824414Y61314D01*
X834014Y51715D01*
X833232Y49137D01*
X832923Y46000D01*
X833232Y42863D01*
X834146Y39847D01*
X835632Y37068D01*
X837632Y34632D01*
X840068Y32632D01*
X842847Y31146D01*
X845863Y30231D01*
X849000Y29923D01*
X852137Y30231D01*
X855153Y31146D01*
X857932Y32632D01*
X860368Y34632D01*
X862368Y37068D01*
X863854Y39847D01*
X864769Y42863D01*
X865077Y46000D01*
X864769Y49137D01*
X863854Y52153D01*
X862368Y54932D01*
X860368Y57368D01*
X857932Y59368D01*
X855153Y60854D01*
X852137Y61768D01*
X849000Y62077D01*
X845863Y61768D01*
X843285Y60986D01*
X835606Y68666D01*
Y69250D01*
X840480D01*
Y79247D01*
Y89250D01*
X809258D01*
Y98350D01*
X808831Y100496D01*
X807615Y102315D01*
X791965Y117965D01*
X790146Y119181D01*
X788000Y119608D01*
X735323D01*
X658965Y195965D01*
X657146Y197181D01*
X655000Y197608D01*
X617000D01*
Y203500D01*
D02*
G37*
G36*
X593500Y65500D02*
X586770D01*
Y58270D01*
X593500D01*
Y65500D01*
D02*
G37*
G36*
X673000Y46230D02*
X663270D01*
Y39000D01*
X673000D01*
Y46230D01*
D02*
G37*
G36*
X660730D02*
X651000D01*
Y39000D01*
X660730D01*
Y46230D01*
D02*
G37*
G36*
X705730D02*
X696000D01*
Y39000D01*
X705730D01*
Y46230D01*
D02*
G37*
G36*
X660730Y56000D02*
X651000D01*
Y48770D01*
X660730D01*
Y56000D01*
D02*
G37*
G36*
X718000Y46230D02*
X708270D01*
Y39000D01*
X718000D01*
Y46230D01*
D02*
G37*
G36*
X903730Y110730D02*
X890500D01*
Y98500D01*
X903730D01*
Y110730D01*
D02*
G37*
G36*
X142730Y161000D02*
X112000D01*
Y146270D01*
X142730D01*
Y161000D01*
D02*
G37*
G36*
X176000Y143730D02*
X145270D01*
Y129000D01*
X176000D01*
Y143730D01*
D02*
G37*
G36*
Y161000D02*
X145270D01*
Y146270D01*
X176000D01*
Y161000D01*
D02*
G37*
G36*
X789730Y183500D02*
X782500D01*
Y176770D01*
X789730D01*
Y183500D01*
D02*
G37*
G36*
X799500Y174230D02*
X782500D01*
Y167500D01*
X782500Y167500D01*
X782500Y166500D01*
X782500D01*
Y150500D01*
X784833D01*
Y146750D01*
X759050D01*
Y126750D01*
X835632D01*
Y123250D01*
X835632Y123250D01*
X835632D01*
X836098Y120909D01*
X837424Y118924D01*
X840674Y115674D01*
X842659Y114348D01*
X845000Y113883D01*
X861000D01*
X863341Y114348D01*
X865326Y115674D01*
X865326Y115674D01*
X865327Y115675D01*
X866500Y115189D01*
Y111770D01*
X883500D01*
Y118500D01*
D01*
Y118500D01*
X883500Y118500D01*
Y119500D01*
X883500D01*
Y135500D01*
X866500D01*
Y132819D01*
X865659Y132652D01*
X863674Y131326D01*
X862123Y129775D01*
X860950Y130261D01*
Y146750D01*
X860567D01*
Y150500D01*
X864500D01*
Y167500D01*
X848500D01*
D01*
D01*
X848500Y167500D01*
X847500D01*
Y167500D01*
X831500D01*
D01*
D01*
X831500Y167500D01*
X830500D01*
Y167500D01*
X814500D01*
D01*
D01*
X814500Y167500D01*
X813500D01*
Y167500D01*
X799500D01*
X799500Y167500D01*
X799500Y168398D01*
X799500Y168398D01*
X799500D01*
Y174230D01*
D02*
G37*
G36*
X883500Y109230D02*
X866500D01*
Y102500D01*
X866500Y102500D01*
X866500Y101500D01*
X866500D01*
Y94770D01*
X883500D01*
Y101500D01*
D01*
Y101500D01*
X883500Y101500D01*
Y102500D01*
X883500D01*
Y109230D01*
D02*
G37*
G36*
X919500Y110730D02*
X906270D01*
Y98500D01*
X919500D01*
Y110730D01*
D02*
G37*
G36*
X903730Y125500D02*
X890500D01*
Y113270D01*
X903730D01*
Y125500D01*
D02*
G37*
G36*
X142730Y143730D02*
X112000D01*
Y129000D01*
X142730D01*
Y143730D01*
D02*
G37*
G36*
X919500Y125500D02*
X906270D01*
Y113270D01*
X919500D01*
Y125500D01*
D02*
G37*
G36*
X215730Y588500D02*
X205500D01*
Y571270D01*
X215730D01*
Y588500D01*
D02*
G37*
G36*
X818000Y648077D02*
X814864Y647768D01*
X811847Y646854D01*
X809068Y645368D01*
X806632Y643369D01*
X804632Y640932D01*
X803146Y638153D01*
X802232Y635137D01*
X801923Y632000D01*
X802232Y628863D01*
X803146Y625847D01*
X804632Y623068D01*
X806632Y620632D01*
X809068Y618632D01*
X810157Y618050D01*
Y596010D01*
X806790D01*
Y569010D01*
X831790D01*
Y596000D01*
X837730D01*
Y605730D01*
X830500D01*
Y596010D01*
X827500D01*
Y618000D01*
X827303D01*
Y618937D01*
X829369Y620632D01*
X831368Y623068D01*
X832854Y625847D01*
X833768Y628863D01*
X834077Y632000D01*
X833768Y635137D01*
X832854Y638153D01*
X831368Y640932D01*
X829369Y643369D01*
X826932Y645368D01*
X824153Y646854D01*
X821137Y647768D01*
X818000Y648077D01*
D02*
G37*
G36*
X228500Y588500D02*
X218270D01*
Y571270D01*
X228500D01*
Y588500D01*
D02*
G37*
G36*
X574500Y605730D02*
X567270D01*
Y596000D01*
X574500D01*
Y605730D01*
D02*
G37*
G36*
X393730Y604730D02*
X386500D01*
Y595000D01*
X393730D01*
Y604730D01*
D02*
G37*
G36*
X215730Y568730D02*
X205500D01*
Y551500D01*
X215730D01*
Y568730D01*
D02*
G37*
G36*
X328870Y529150D02*
X274140D01*
Y474920D01*
X328870D01*
Y529150D01*
D02*
G37*
G36*
X228500Y568730D02*
X218270D01*
Y551500D01*
X228500D01*
Y568730D01*
D02*
G37*
G36*
X681000Y648077D02*
X677863Y647768D01*
X674847Y646854D01*
X672068Y645368D01*
X669632Y643369D01*
X667632Y640932D01*
X666146Y638153D01*
X665231Y635137D01*
X664923Y632000D01*
X665231Y628863D01*
X666146Y625847D01*
X667632Y623068D01*
X669632Y620632D01*
X672068Y618632D01*
X672427Y618440D01*
Y596010D01*
X672000D01*
Y569010D01*
X697000D01*
Y596000D01*
X699730D01*
Y605730D01*
X692500D01*
Y596010D01*
X689573D01*
Y618440D01*
X689932Y618632D01*
X692368Y620632D01*
X694368Y623068D01*
X695854Y625847D01*
X696768Y628863D01*
X697077Y632000D01*
X696768Y635137D01*
X695854Y638153D01*
X694368Y640932D01*
X692368Y643369D01*
X689932Y645368D01*
X687153Y646854D01*
X684137Y647768D01*
X681000Y648077D01*
D02*
G37*
G36*
X546000D02*
X542864Y647768D01*
X539847Y646854D01*
X537068Y645368D01*
X534632Y643369D01*
X532632Y640932D01*
X531146Y638153D01*
X530232Y635137D01*
X529923Y632000D01*
X530232Y628863D01*
X531146Y625847D01*
X532632Y623068D01*
X534632Y620632D01*
X537068Y618632D01*
X537427Y618440D01*
Y596010D01*
X537210D01*
Y569010D01*
X562210D01*
Y596000D01*
X564730D01*
Y605730D01*
X557500D01*
Y596010D01*
X554573D01*
Y618440D01*
X554932Y618632D01*
X557369Y620632D01*
X559368Y623068D01*
X560854Y625847D01*
X561768Y628863D01*
X562077Y632000D01*
X561768Y635137D01*
X560854Y638153D01*
X559368Y640932D01*
X557369Y643369D01*
X554932Y645368D01*
X552153Y646854D01*
X549137Y647768D01*
X546000Y648077D01*
D02*
G37*
G36*
X415000D02*
X411864Y647768D01*
X408847Y646854D01*
X406068Y645368D01*
X403632Y643369D01*
X401632Y640932D01*
X400146Y638153D01*
X399231Y635137D01*
X398923Y632000D01*
X399231Y628863D01*
X400146Y625847D01*
X401632Y623068D01*
X403632Y620632D01*
X406068Y618632D01*
X406427Y618440D01*
Y606000D01*
Y596010D01*
X403500D01*
Y604730D01*
X396270D01*
Y595000D01*
X402420D01*
Y569010D01*
X427420D01*
Y596010D01*
X423573D01*
Y606000D01*
Y618440D01*
X423932Y618632D01*
X426368Y620632D01*
X428368Y623068D01*
X429854Y625847D01*
X430769Y628863D01*
X431077Y632000D01*
X430769Y635137D01*
X429854Y638153D01*
X428368Y640932D01*
X426368Y643369D01*
X423932Y645368D01*
X421153Y646854D01*
X418137Y647768D01*
X415000Y648077D01*
D02*
G37*
G36*
X699730Y618000D02*
X692500D01*
Y608270D01*
X699730D01*
Y618000D01*
D02*
G37*
G36*
X574500Y618000D02*
X567270D01*
Y608270D01*
X574500D01*
Y618000D01*
D02*
G37*
G36*
X837730Y618000D02*
X830500D01*
Y608270D01*
X837730D01*
Y618000D01*
D02*
G37*
G36*
X221270Y638464D02*
Y621270D01*
X238464D01*
X238232Y623627D01*
X237174Y627114D01*
X235457Y630328D01*
X233145Y633145D01*
X230328Y635457D01*
X227114Y637174D01*
X223627Y638232D01*
X221270Y638464D01*
D02*
G37*
G36*
X218730D02*
X216373Y638232D01*
X212886Y637174D01*
X209672Y635457D01*
X206855Y633145D01*
X204543Y630328D01*
X202826Y627114D01*
X201768Y623627D01*
X201536Y621270D01*
X218730D01*
Y638464D01*
D02*
G37*
G36*
X238464Y618730D02*
X221270D01*
Y601536D01*
X223627Y601768D01*
X227114Y602826D01*
X230328Y604543D01*
X233145Y606855D01*
X235457Y609672D01*
X237174Y612886D01*
X238232Y616373D01*
X238464Y618730D01*
D02*
G37*
G36*
X218730D02*
X201536D01*
X201768Y616373D01*
X202826Y612886D01*
X204543Y609672D01*
X206855Y606855D01*
X209672Y604543D01*
X212886Y602826D01*
X216373Y601768D01*
X218730Y601536D01*
Y618730D01*
D02*
G37*
G36*
X393730Y617000D02*
X386500D01*
Y607270D01*
X393730D01*
Y617000D01*
D02*
G37*
G36*
X564730Y618000D02*
X557500D01*
Y608270D01*
X564730D01*
Y618000D01*
D02*
G37*
G36*
X403500Y617000D02*
X396270D01*
Y607270D01*
X403500D01*
Y617000D01*
D02*
G37*
G36*
X271600Y529150D02*
X216870D01*
Y474920D01*
X271600D01*
Y529150D01*
D02*
G37*
G36*
X931730Y361000D02*
X924500D01*
Y351270D01*
X931730D01*
Y361000D01*
D02*
G37*
G36*
X305600Y399150D02*
X274140D01*
Y378147D01*
Y357150D01*
X281297D01*
Y332000D01*
X281589Y329781D01*
X282194Y328319D01*
X282445Y327713D01*
X283808Y325938D01*
X300172Y309573D01*
X299686Y308400D01*
X291750D01*
Y287741D01*
X290958Y286708D01*
X289597Y283424D01*
X289133Y279900D01*
X289597Y276376D01*
X290958Y273092D01*
X291114Y272888D01*
X235938Y217712D01*
X234575Y215937D01*
X233719Y213869D01*
X233427Y211650D01*
Y161000D01*
X210000D01*
Y129000D01*
X274000D01*
Y161000D01*
X250573D01*
Y208099D01*
X293874Y251400D01*
X303694D01*
Y135000D01*
X303917Y133303D01*
X304189Y132648D01*
X304572Y131722D01*
X305614Y130364D01*
X399614Y36364D01*
X400972Y35322D01*
X401762Y34995D01*
X402553Y34667D01*
X404250Y34444D01*
X625284D01*
X633364Y26364D01*
X633364Y26364D01*
X639364Y20364D01*
X640722Y19322D01*
X641648Y18939D01*
X642303Y18667D01*
X644000Y18444D01*
X772283D01*
X775363Y15364D01*
X776720Y14322D01*
X777511Y13995D01*
X778302Y13667D01*
X779998Y13444D01*
X878000D01*
X879697Y13667D01*
X880352Y13939D01*
X881278Y14322D01*
X882636Y15364D01*
X909636Y42364D01*
X910678Y43722D01*
X911005Y44513D01*
X911333Y45303D01*
X911556Y47000D01*
Y68500D01*
X919500D01*
Y95500D01*
X890500D01*
Y82618D01*
X883500D01*
Y84500D01*
D01*
Y84500D01*
X883500Y84500D01*
Y85500D01*
X883500D01*
Y92230D01*
X866500D01*
Y85500D01*
X866500Y85500D01*
X866500Y84500D01*
X866500D01*
Y82618D01*
X860950D01*
Y89250D01*
X843020D01*
Y79247D01*
Y69250D01*
X860950D01*
Y70382D01*
X866500D01*
Y68500D01*
X883500D01*
Y70382D01*
X890500D01*
Y68500D01*
X898444D01*
Y49716D01*
X875284Y26556D01*
X782714D01*
X779634Y29636D01*
X778277Y30678D01*
X777486Y31005D01*
X776695Y31333D01*
X774998Y31556D01*
X646716D01*
X642636Y35636D01*
X642636Y35636D01*
X632636Y45636D01*
X631278Y46678D01*
X630487Y47005D01*
X629697Y47333D01*
X628000Y47556D01*
X593500D01*
Y48500D01*
X593500D01*
Y55730D01*
X585498D01*
Y56997D01*
X584230D01*
Y65500D01*
X577506D01*
X577506Y65500D01*
Y65500D01*
X577500Y65500D01*
X576608Y66392D01*
Y70500D01*
X577730D01*
Y81997D01*
Y93500D01*
X576608D01*
Y94500D01*
X576181Y96646D01*
X574965Y98465D01*
X568608Y104823D01*
Y180500D01*
X569730D01*
Y191998D01*
Y203500D01*
X568608D01*
Y232677D01*
X573823Y237892D01*
X580500D01*
Y235500D01*
X580500Y235500D01*
X580500Y234500D01*
X580500D01*
Y227770D01*
X597500D01*
Y234500D01*
D01*
Y234500D01*
X597500Y234500D01*
Y235500D01*
X597500D01*
Y243569D01*
X601327Y247396D01*
X602500Y246910D01*
Y245500D01*
X631500D01*
Y252444D01*
X748000D01*
X749697Y252667D01*
X750352Y252939D01*
X751278Y253322D01*
X752636Y254364D01*
X764716Y266444D01*
X863284D01*
X877444Y252284D01*
Y247797D01*
X877192Y247692D01*
X874372Y245528D01*
X872208Y242708D01*
X871935Y242050D01*
X870665D01*
X870392Y242708D01*
X868228Y245528D01*
X865408Y247692D01*
X862124Y249053D01*
X858600Y249517D01*
X855076Y249053D01*
X851792Y247692D01*
X848972Y245528D01*
X846808Y242708D01*
X846356Y241618D01*
X830500D01*
Y243500D01*
D01*
Y243500D01*
X830500Y243500D01*
Y244500D01*
X830500D01*
Y251230D01*
X821998D01*
Y252498D01*
X820730D01*
Y260500D01*
X813898D01*
X813898Y260500D01*
Y260500D01*
X813500Y260500D01*
X813250D01*
X813000D01*
X812602Y260500D01*
X812602Y260500D01*
Y260500D01*
X805770D01*
Y252498D01*
X804503D01*
Y251230D01*
X796000D01*
Y244500D01*
X796000Y244500D01*
X796000Y243500D01*
X780500D01*
D01*
D01*
X780500Y243500D01*
X779500D01*
Y243500D01*
X763500D01*
Y234931D01*
X711771Y183202D01*
X710000Y183435D01*
X707429Y183097D01*
X705033Y182104D01*
X702975Y180525D01*
X701396Y178468D01*
X700404Y176071D01*
X700065Y173500D01*
X700404Y170929D01*
X701396Y168533D01*
X702975Y166475D01*
X705033Y164896D01*
X707429Y163904D01*
X710000Y163565D01*
X712571Y163904D01*
X714967Y164896D01*
X717025Y166475D01*
X718604Y168533D01*
X719596Y170929D01*
X719935Y173500D01*
X719702Y175271D01*
X770930Y226500D01*
X779500D01*
Y226500D01*
X779500D01*
X779500Y226500D01*
X780500D01*
Y226500D01*
X796500D01*
Y227500D01*
X813000D01*
Y227500D01*
X813000D01*
X813000Y227500D01*
X813500D01*
Y227500D01*
X830500D01*
Y229382D01*
X846687D01*
X846808Y229092D01*
X848972Y226272D01*
X851792Y224108D01*
X855076Y222747D01*
X858600Y222284D01*
X862124Y222747D01*
X865408Y224108D01*
X868228Y226272D01*
X870392Y229092D01*
X870665Y229750D01*
X871935D01*
X872208Y229092D01*
X874372Y226272D01*
X877192Y224108D01*
X880476Y222747D01*
X884000Y222284D01*
X887524Y222747D01*
X890808Y224108D01*
X893628Y226272D01*
X895792Y229092D01*
X896065Y229750D01*
X897335D01*
X897608Y229092D01*
X899772Y226272D01*
X902592Y224108D01*
X905876Y222747D01*
X909400Y222284D01*
X912924Y222747D01*
X916208Y224108D01*
X919028Y226272D01*
X921192Y229092D01*
X922553Y232376D01*
X923017Y235900D01*
X922553Y239424D01*
X921192Y242708D01*
X919028Y245528D01*
X916208Y247692D01*
X912924Y249053D01*
X909400Y249517D01*
X905876Y249053D01*
X902592Y247692D01*
X899772Y245528D01*
X897608Y242708D01*
X897335Y242050D01*
X896065D01*
X895792Y242708D01*
X893628Y245528D01*
X890808Y247692D01*
X890556Y247797D01*
Y255000D01*
X890333Y256697D01*
X889870Y257815D01*
X889678Y258278D01*
X888636Y259636D01*
X870636Y277636D01*
X869278Y278678D01*
X868352Y279061D01*
X867697Y279333D01*
X866000Y279556D01*
X829556D01*
Y290999D01*
Y320284D01*
X850426Y341154D01*
X851468Y342512D01*
X851468Y342512D01*
X851468Y342512D01*
X852123Y344093D01*
X852346Y345790D01*
Y350353D01*
X852598Y350458D01*
X855418Y352622D01*
X857582Y355442D01*
X857855Y356100D01*
X859125D01*
X859398Y355442D01*
X861562Y352622D01*
X864382Y350458D01*
X867666Y349098D01*
X871190Y348633D01*
X874714Y349098D01*
X877998Y350458D01*
X880818Y352622D01*
X882982Y355442D01*
X884343Y358726D01*
X884807Y362250D01*
X884343Y365774D01*
X882982Y369058D01*
X880818Y371878D01*
X877998Y374042D01*
X874714Y375402D01*
X871190Y375867D01*
X867666Y375402D01*
X864382Y374042D01*
X861562Y371878D01*
X859398Y369058D01*
X859125Y368400D01*
X857855D01*
X857582Y369058D01*
X855418Y371878D01*
X852598Y374042D01*
X852346Y374147D01*
Y382210D01*
X852123Y383907D01*
X851795Y384697D01*
X851468Y385488D01*
X850426Y386846D01*
X841636Y395636D01*
X840278Y396678D01*
X839352Y397061D01*
X838697Y397333D01*
X837000Y397556D01*
X377000D01*
X375303Y397333D01*
X374513Y397005D01*
X373722Y396678D01*
X372364Y395636D01*
X346364Y369636D01*
X345322Y368278D01*
X344995Y367487D01*
X344667Y366697D01*
X344444Y365000D01*
Y286456D01*
X328750D01*
Y308400D01*
X318823D01*
Y311620D01*
X318531Y313839D01*
X318176Y314695D01*
X317675Y315907D01*
X316312Y317682D01*
X298443Y335551D01*
Y337500D01*
X300500D01*
Y337500D01*
X300500D01*
X300500Y337500D01*
X301500D01*
Y337500D01*
X308230D01*
Y345998D01*
Y354500D01*
X301500D01*
D01*
D01*
X301500Y354500D01*
X300500D01*
Y354500D01*
X298443D01*
Y357150D01*
X305600D01*
Y378147D01*
Y399150D01*
D02*
G37*
G36*
X317500Y354500D02*
X310770D01*
Y347270D01*
X317500D01*
Y354500D01*
D02*
G37*
G36*
X315870Y376880D02*
X308140D01*
Y357150D01*
X315870D01*
Y376880D01*
D02*
G37*
G36*
X113500Y528500D02*
X76500D01*
Y481500D01*
X105375D01*
X121597Y465279D01*
Y455580D01*
X114170D01*
Y391580D01*
X146170D01*
Y415007D01*
X164869D01*
X207788Y372088D01*
X209563Y370725D01*
X211631Y369869D01*
X213850Y369577D01*
X229870D01*
Y357150D01*
X232752D01*
Y354440D01*
X230190D01*
D01*
D01*
X230190Y354440D01*
X229190D01*
Y354440D01*
X222460D01*
Y345937D01*
Y337440D01*
X229190D01*
Y337440D01*
X229190D01*
X229190Y337440D01*
X230190D01*
Y337440D01*
X246190D01*
Y337440D01*
X246399D01*
X247297Y336542D01*
Y300421D01*
X239923Y293048D01*
X238750Y293534D01*
Y308400D01*
X201750D01*
Y288473D01*
X190330D01*
X188111Y288181D01*
X186043Y287325D01*
X184268Y285962D01*
X179545Y281240D01*
X149670D01*
Y234240D01*
X186670D01*
Y264115D01*
X193881Y271327D01*
X201750D01*
Y251400D01*
X238750D01*
Y271327D01*
X238900D01*
X241119Y271619D01*
X242581Y272224D01*
X243187Y272475D01*
X244962Y273838D01*
X261932Y290808D01*
X263295Y292583D01*
X263295Y292583D01*
X263295Y292583D01*
X264151Y294651D01*
X264443Y296870D01*
Y357150D01*
X271600D01*
Y378147D01*
Y399150D01*
X229870D01*
Y386723D01*
X217401D01*
X174482Y429642D01*
X172707Y431005D01*
X170639Y431861D01*
X168420Y432153D01*
X146170D01*
Y455580D01*
X138743D01*
Y468830D01*
X138451Y471049D01*
X138200Y471655D01*
X137595Y473117D01*
X136232Y474892D01*
X113500Y497625D01*
Y528500D01*
D02*
G37*
G36*
X941500Y361000D02*
X934270D01*
Y351270D01*
X941500D01*
Y361000D01*
D02*
G37*
G36*
X219920Y354440D02*
X213190D01*
Y347210D01*
X219920D01*
Y354440D01*
D02*
G37*
G36*
X831790Y506010D02*
X806790D01*
Y479010D01*
X816882D01*
Y477000D01*
X814500D01*
Y455000D01*
X831500D01*
Y477000D01*
X829118D01*
Y479010D01*
X831790D01*
Y506010D01*
D02*
G37*
G36*
X884790D02*
X859790D01*
Y488661D01*
X857674Y486546D01*
X856348Y484561D01*
X855882Y482220D01*
Y477000D01*
X853500D01*
Y455000D01*
X870500D01*
Y477000D01*
X868118D01*
Y479010D01*
X884790D01*
Y506010D01*
D02*
G37*
G36*
X315870Y399150D02*
X308140D01*
Y379420D01*
X315870D01*
Y399150D01*
D02*
G37*
G36*
X271600Y472380D02*
X216870D01*
Y418150D01*
X271600D01*
Y472380D01*
D02*
G37*
G36*
X328870D02*
X274140D01*
Y418150D01*
X328870D01*
Y472380D01*
D02*
G37*
%LPD*%
G36*
X434864Y374147D02*
X434612Y374042D01*
X431792Y371878D01*
X429628Y369058D01*
X429355Y368400D01*
X428085D01*
X427812Y369058D01*
X425648Y371878D01*
X422828Y374042D01*
X419544Y375402D01*
X416020Y375867D01*
X412496Y375402D01*
X409212Y374042D01*
X406392Y371878D01*
X404228Y369058D01*
X402868Y365774D01*
X402404Y362250D01*
X402868Y358726D01*
X404228Y355442D01*
X406392Y352622D01*
X409212Y350458D01*
X409902Y350172D01*
Y348500D01*
X407500D01*
Y331500D01*
Y315500D01*
Y299500D01*
X423500D01*
Y299500D01*
X423500D01*
X423500Y299500D01*
X424500D01*
Y299500D01*
X440500D01*
Y301392D01*
X442677D01*
X525392Y218677D01*
Y203500D01*
X525000D01*
Y183000D01*
X504500D01*
Y171000D01*
Y163000D01*
Y155000D01*
Y153090D01*
X503664Y152744D01*
X502608Y153449D01*
Y170000D01*
X502181Y172146D01*
X500965Y173965D01*
X493965Y180965D01*
X492146Y182181D01*
X490000Y182608D01*
X473125D01*
X473045Y182800D01*
X471202Y185202D01*
X468800Y187045D01*
X466002Y188204D01*
X463000Y188599D01*
X459998Y188204D01*
X457200Y187045D01*
X454798Y185202D01*
X452955Y182800D01*
X451796Y180002D01*
X451401Y177000D01*
X451796Y173998D01*
X452955Y171200D01*
X454798Y168798D01*
X456314Y167635D01*
Y166365D01*
X454798Y165202D01*
X452955Y162800D01*
X451796Y160002D01*
X451401Y157000D01*
X451796Y153998D01*
X452955Y151200D01*
X454798Y148798D01*
X456314Y147635D01*
Y146365D01*
X454798Y145202D01*
X452955Y142800D01*
X451796Y140002D01*
X451568Y138270D01*
X474432D01*
X474483Y137886D01*
X475622Y138448D01*
X481035Y133035D01*
X482854Y131819D01*
X485000Y131392D01*
X491802D01*
X492289Y130219D01*
X484035Y121965D01*
X482819Y120146D01*
X482392Y118000D01*
Y108323D01*
X476677Y102608D01*
X474500D01*
Y108500D01*
X472409D01*
X471847Y109639D01*
X473045Y111200D01*
X474204Y113998D01*
X474599Y117000D01*
X474204Y120002D01*
X473045Y122800D01*
X471202Y125202D01*
X469686Y126365D01*
Y127635D01*
X471202Y128798D01*
X473045Y131200D01*
X474204Y133998D01*
X474432Y135730D01*
X451568D01*
X451796Y133998D01*
X452955Y131200D01*
X454798Y128798D01*
X456314Y127635D01*
Y126365D01*
X454798Y125202D01*
X453535Y123556D01*
X444500D01*
Y125500D01*
X443056D01*
Y194400D01*
X442833Y196097D01*
X442505Y196887D01*
X442178Y197678D01*
X441136Y199036D01*
X357556Y282616D01*
Y362284D01*
X379716Y384444D01*
X434864D01*
Y374147D01*
D02*
G37*
G36*
X808598Y355442D02*
X810762Y352622D01*
X813582Y350458D01*
X816866Y349098D01*
X820390Y348633D01*
X823914Y349098D01*
X827198Y350458D01*
X830018Y352622D01*
X832182Y355442D01*
X832455Y356100D01*
X833725D01*
X833998Y355442D01*
X836162Y352622D01*
X838982Y350458D01*
X839234Y350353D01*
Y348506D01*
X818364Y327636D01*
X817322Y326278D01*
X816939Y325352D01*
X816667Y324697D01*
X816444Y323000D01*
Y290999D01*
X816444Y290999D01*
X816444D01*
Y287000D01*
Y279556D01*
X762000D01*
X760303Y279333D01*
X759840Y279141D01*
X758722Y278678D01*
X757364Y277636D01*
X745284Y265556D01*
X631500D01*
Y272500D01*
X602500D01*
Y263944D01*
X601035Y262965D01*
X589569Y251500D01*
X580500D01*
Y249108D01*
X571500D01*
X569354Y248681D01*
X567535Y247465D01*
X561781Y241712D01*
X560608Y242198D01*
Y246677D01*
X596323Y282392D01*
X732000D01*
X734146Y282819D01*
X735965Y284035D01*
X735965Y284035D01*
X735965Y284035D01*
X754323Y302392D01*
X763500D01*
Y299500D01*
X779500D01*
Y299500D01*
X779500D01*
X779500Y299500D01*
X780500D01*
Y299500D01*
X796500D01*
Y316500D01*
X796500D01*
Y331500D01*
X796500D01*
Y348500D01*
X794617D01*
Y349966D01*
X800784Y356133D01*
X808312D01*
X808598Y355442D01*
D02*
G37*
G36*
X557392Y102500D02*
X557819Y100354D01*
X559035Y98535D01*
X562896Y94673D01*
X562410Y93500D01*
X527500D01*
Y99000D01*
Y107000D01*
Y115000D01*
Y123000D01*
Y131000D01*
Y139000D01*
Y147000D01*
Y155000D01*
Y163000D01*
Y171000D01*
Y180500D01*
X557392D01*
Y102500D01*
D02*
G37*
G36*
X569654Y374147D02*
X569402Y374042D01*
X566582Y371878D01*
X564418Y369058D01*
X564145Y368400D01*
X562875D01*
X562602Y369058D01*
X560438Y371878D01*
X557618Y374042D01*
X554334Y375402D01*
X550810Y375867D01*
X547286Y375402D01*
X544002Y374042D01*
X541182Y371878D01*
X539018Y369058D01*
X537658Y365774D01*
X537194Y362250D01*
X537658Y358726D01*
X539018Y355442D01*
X541182Y352622D01*
X544002Y350458D01*
X544692Y350172D01*
Y348500D01*
X542500D01*
Y331500D01*
X542500D01*
Y316500D01*
X542500D01*
X542500Y316500D01*
X542500Y316500D01*
X526500D01*
Y299500D01*
X528892D01*
Y256500D01*
X529319Y254354D01*
X530535Y252535D01*
X530535Y252535D01*
X530535Y252535D01*
X533392Y249677D01*
Y228198D01*
X532219Y227712D01*
X448965Y310965D01*
X447146Y312181D01*
X445000Y312608D01*
X440500D01*
Y315500D01*
Y322730D01*
X432497D01*
Y325270D01*
X440500D01*
Y331500D01*
Y338730D01*
X432497D01*
Y341270D01*
X440500D01*
Y341645D01*
X441420Y348633D01*
X444944Y349098D01*
X448228Y350458D01*
X451048Y352622D01*
X453212Y355442D01*
X453485Y356100D01*
X454755D01*
X455028Y355442D01*
X457192Y352622D01*
X460012Y350458D01*
X463296Y349098D01*
X466820Y348633D01*
X470344Y349098D01*
X473628Y350458D01*
X476448Y352622D01*
X478612Y355442D01*
X479972Y358726D01*
X480437Y362250D01*
X479972Y365774D01*
X478612Y369058D01*
X476448Y371878D01*
X473628Y374042D01*
X470344Y375402D01*
X466820Y375867D01*
X463296Y375402D01*
X460012Y374042D01*
X457192Y371878D01*
X455028Y369058D01*
X454755Y368400D01*
X453485D01*
X453212Y369058D01*
X451048Y371878D01*
X448228Y374042D01*
X447976Y374147D01*
Y384444D01*
X569654D01*
Y374147D01*
D02*
G37*
G36*
X491392Y167677D02*
Y151000D01*
X491819Y148854D01*
X493035Y147035D01*
X496288Y143781D01*
X495802Y142608D01*
X487323D01*
X474405Y155526D01*
X474599Y157000D01*
X474204Y160002D01*
X473045Y162800D01*
X471202Y165202D01*
X469686Y166365D01*
Y167635D01*
X471202Y168798D01*
X473045Y171200D01*
X473125Y171392D01*
X487677D01*
X491392Y167677D01*
D02*
G37*
G36*
X492882Y625466D02*
Y611500D01*
X488000D01*
Y594500D01*
X509392D01*
Y591500D01*
X488000D01*
Y589188D01*
X480420D01*
Y596010D01*
X476493D01*
Y601398D01*
X476932Y601632D01*
X479369Y603632D01*
X481368Y606068D01*
X482854Y608847D01*
X483769Y611864D01*
X484077Y615000D01*
X483769Y618137D01*
X482854Y621153D01*
X481368Y623932D01*
X479369Y626368D01*
X476932Y628368D01*
X474153Y629854D01*
X471606Y630626D01*
X471792Y631883D01*
X486466D01*
X492882Y625466D01*
D02*
G37*
G36*
X627882Y620466D02*
Y611500D01*
X623000D01*
Y594500D01*
X643392D01*
Y591500D01*
X623000D01*
Y589188D01*
X615210D01*
Y596010D01*
X611843D01*
Y601050D01*
X612932Y601632D01*
X615368Y603632D01*
X617368Y606068D01*
X618854Y608847D01*
X619768Y611864D01*
X620077Y615000D01*
X619768Y618137D01*
X618854Y621153D01*
X617368Y623932D01*
X615368Y626368D01*
X612932Y628368D01*
X610153Y629854D01*
X610157Y629883D01*
X618466D01*
X627882Y620466D01*
D02*
G37*
G36*
X679500Y478000D02*
X679500D01*
Y456000D01*
X696500D01*
Y456000D01*
X696500D01*
X696500Y456000D01*
X697500D01*
Y456000D01*
X704883D01*
Y450528D01*
X704192Y450242D01*
X701372Y448078D01*
X699208Y445258D01*
X698935Y444600D01*
X697665D01*
X697392Y445258D01*
X695228Y448078D01*
X692408Y450242D01*
X689124Y451603D01*
X685600Y452066D01*
X682076Y451603D01*
X678792Y450242D01*
X675972Y448078D01*
X673808Y445258D01*
X673363Y444185D01*
X672118Y444433D01*
Y456000D01*
X676500D01*
Y478000D01*
X676500D01*
Y478112D01*
X677398Y479010D01*
X679500D01*
Y478000D01*
D02*
G37*
G36*
X839234Y379494D02*
Y374147D01*
X838982Y374042D01*
X836162Y371878D01*
X833998Y369058D01*
X833725Y368400D01*
X832455D01*
X832182Y369058D01*
X830018Y371878D01*
X827198Y374042D01*
X823914Y375402D01*
X820390Y375867D01*
X816866Y375402D01*
X813582Y374042D01*
X810762Y371878D01*
X808598Y369058D01*
X808312Y368368D01*
X798250D01*
X795909Y367902D01*
X795114Y367371D01*
X793924Y366576D01*
X784174Y356826D01*
X782848Y354841D01*
X782382Y352500D01*
Y348500D01*
X780500D01*
D01*
D01*
X780500Y348500D01*
X779500D01*
Y348500D01*
X772770D01*
Y339997D01*
X771503D01*
Y338730D01*
X763500D01*
Y333500D01*
X763500D01*
Y326270D01*
X771503D01*
Y323730D01*
X763500D01*
Y316500D01*
X763500D01*
Y313608D01*
X752000D01*
X749854Y313181D01*
X748035Y311965D01*
X729677Y293608D01*
X598198D01*
X597712Y294781D01*
X605323Y302392D01*
X660500D01*
Y299500D01*
X676500D01*
Y299500D01*
X676500D01*
X676500Y299500D01*
X677500D01*
Y299500D01*
X693500D01*
Y315500D01*
X693500Y315500D01*
D01*
D01*
X694500D01*
Y315500D01*
X701230D01*
Y324003D01*
X702497D01*
Y325270D01*
X710500D01*
Y332500D01*
X710500D01*
Y338730D01*
X702497D01*
Y341270D01*
X710500D01*
Y344835D01*
X711000Y348633D01*
X714524Y349098D01*
X717808Y350458D01*
X720628Y352622D01*
X722792Y355442D01*
X723065Y356100D01*
X724335D01*
X724608Y355442D01*
X726772Y352622D01*
X729592Y350458D01*
X732876Y349098D01*
X736400Y348633D01*
X739924Y349098D01*
X743208Y350458D01*
X746028Y352622D01*
X748192Y355442D01*
X749553Y358726D01*
X750016Y362250D01*
X749553Y365774D01*
X748192Y369058D01*
X746028Y371878D01*
X743208Y374042D01*
X739924Y375402D01*
X736400Y375867D01*
X732876Y375402D01*
X729592Y374042D01*
X726772Y371878D01*
X724608Y369058D01*
X724335Y368400D01*
X723065D01*
X722792Y369058D01*
X720628Y371878D01*
X717808Y374042D01*
X717556Y374147D01*
Y384444D01*
X834284D01*
X839234Y379494D01*
D02*
G37*
G36*
X704444Y374147D02*
X704192Y374042D01*
X701372Y371878D01*
X699208Y369058D01*
X698935Y368400D01*
X697665D01*
X697392Y369058D01*
X695228Y371878D01*
X692408Y374042D01*
X689124Y375402D01*
X685600Y375867D01*
X682076Y375402D01*
X678792Y374042D01*
X675972Y371878D01*
X673808Y369058D01*
X672448Y365774D01*
X671984Y362250D01*
X672448Y358726D01*
X673808Y355442D01*
X675972Y352622D01*
X678792Y350458D01*
X679482Y350172D01*
Y348500D01*
X677500D01*
Y331500D01*
X677500D01*
Y316500D01*
X677500D01*
Y316500D01*
X677500D01*
D01*
D01*
X676500D01*
Y316500D01*
X660500D01*
Y313608D01*
X603000D01*
X600854Y313181D01*
X599035Y311965D01*
X543035Y255965D01*
X542965D01*
X542965Y255965D01*
X540108Y258823D01*
Y299500D01*
X542500D01*
Y299500D01*
X542500D01*
X542500Y299500D01*
X543500D01*
Y299500D01*
X559500D01*
Y315500D01*
D01*
X559500D01*
X560398Y315500D01*
X560398Y315500D01*
Y315500D01*
X566230D01*
Y324003D01*
X567497D01*
Y325270D01*
X575500D01*
Y332500D01*
X575500D01*
Y338730D01*
X567497D01*
Y341270D01*
X575500D01*
Y343240D01*
X576210Y348633D01*
X579734Y349098D01*
X583018Y350458D01*
X585838Y352622D01*
X588002Y355442D01*
X588275Y356100D01*
X589545D01*
X589818Y355442D01*
X591982Y352622D01*
X594802Y350458D01*
X598086Y349098D01*
X601610Y348633D01*
X605134Y349098D01*
X608418Y350458D01*
X611238Y352622D01*
X613402Y355442D01*
X614762Y358726D01*
X615227Y362250D01*
X614762Y365774D01*
X613402Y369058D01*
X611238Y371878D01*
X608418Y374042D01*
X605134Y375402D01*
X601610Y375867D01*
X598086Y375402D01*
X594802Y374042D01*
X591982Y371878D01*
X589818Y369058D01*
X589545Y368400D01*
X588275D01*
X588002Y369058D01*
X585838Y371878D01*
X583018Y374042D01*
X582766Y374147D01*
Y384444D01*
X704444D01*
Y374147D01*
D02*
G37*
G36*
X895882Y619466D02*
Y611500D01*
X891000D01*
Y594500D01*
X913000D01*
D01*
X913000D01*
X913444Y594056D01*
Y591500D01*
X913000D01*
Y591500D01*
X891000D01*
Y589188D01*
X884790D01*
Y596010D01*
X881573D01*
Y601440D01*
X881932Y601632D01*
X884369Y603632D01*
X886368Y606068D01*
X887854Y608847D01*
X888768Y611864D01*
X889077Y615000D01*
X888768Y618137D01*
X887854Y621153D01*
X886368Y623932D01*
X884369Y626368D01*
X881932Y628368D01*
X879153Y629854D01*
X879157Y629883D01*
X885466D01*
X895882Y619466D01*
D02*
G37*
G36*
X760882Y620466D02*
Y611500D01*
X756000D01*
Y594500D01*
X777392D01*
Y591500D01*
X756000D01*
Y589188D01*
X750000D01*
Y596010D01*
X746573D01*
Y601440D01*
X746932Y601632D01*
X749369Y603632D01*
X751368Y606068D01*
X752854Y608847D01*
X753768Y611864D01*
X754077Y615000D01*
X753768Y618137D01*
X752854Y621153D01*
X751368Y623932D01*
X749369Y626368D01*
X746932Y628368D01*
X744153Y629854D01*
X744157Y629883D01*
X751466D01*
X760882Y620466D01*
D02*
G37*
G36*
X429944Y191684D02*
Y125500D01*
X428398D01*
X428398Y125500D01*
Y125500D01*
X427500Y125500D01*
X427500D01*
D01*
X426602Y125500D01*
X426602Y125500D01*
Y125500D01*
X420270D01*
Y117498D01*
X419002D01*
Y116230D01*
X410500D01*
Y109500D01*
X410500Y109500D01*
X410500Y108500D01*
X410500D01*
Y92500D01*
X427500D01*
D01*
X427500Y92500D01*
X427500Y92500D01*
X427500D01*
Y92500D01*
Y92500D01*
X444500D01*
Y95392D01*
X451500D01*
Y85500D01*
X474500D01*
Y91392D01*
X479000D01*
X481146Y91819D01*
X482965Y93035D01*
X482965Y93035D01*
X482965Y93035D01*
X491965Y102035D01*
X493181Y103854D01*
X493608Y106000D01*
Y115677D01*
X501323Y123392D01*
X504500D01*
Y123000D01*
Y115000D01*
Y107000D01*
Y99000D01*
Y91000D01*
X525000D01*
Y70500D01*
X565392D01*
Y65500D01*
X560500D01*
Y48500D01*
X560500D01*
Y48454D01*
X559602Y47556D01*
X406965D01*
X316806Y137715D01*
Y251400D01*
X328750D01*
Y273344D01*
X348284D01*
X429944Y191684D01*
D02*
G37*
%LPC*%
G36*
X770230Y348500D02*
X763500D01*
Y341270D01*
X770230D01*
Y348500D01*
D02*
G37*
G36*
X710500Y322730D02*
X703770D01*
Y315500D01*
X710500D01*
Y322730D01*
D02*
G37*
G36*
X575500D02*
X568770D01*
Y315500D01*
X575500D01*
Y322730D01*
D02*
G37*
G36*
X417730Y125500D02*
X410500D01*
Y118770D01*
X417730D01*
Y125500D01*
D02*
G37*
%LPD*%
D10*
X901670Y546070D02*
D03*
Y566070D02*
D03*
X767000Y510510D02*
D03*
Y530510D02*
D03*
X901670Y510510D02*
D03*
Y530510D02*
D03*
X767000Y566070D02*
D03*
Y546070D02*
D03*
X767000Y603000D02*
D03*
Y583000D02*
D03*
X902000Y603000D02*
D03*
Y583000D02*
D03*
X634000Y510510D02*
D03*
Y530510D02*
D03*
X499000Y510510D02*
D03*
Y530510D02*
D03*
X634000Y566070D02*
D03*
Y546070D02*
D03*
X499000Y566070D02*
D03*
Y546070D02*
D03*
X634000Y603000D02*
D03*
Y583000D02*
D03*
X499000Y603000D02*
D03*
Y583000D02*
D03*
X707000Y68500D02*
D03*
Y47500D02*
D03*
X662000Y68500D02*
D03*
Y47500D02*
D03*
D11*
X839500Y159000D02*
D03*
X856500D02*
D03*
X805500D02*
D03*
X822500D02*
D03*
X238190Y345940D02*
D03*
X221190D02*
D03*
X292500Y346000D02*
D03*
X309500D02*
D03*
X585500Y57000D02*
D03*
X568500D02*
D03*
X668500Y308000D02*
D03*
X685500D02*
D03*
X771500Y308000D02*
D03*
X788500D02*
D03*
X685500Y340000D02*
D03*
X702500D02*
D03*
X788500D02*
D03*
X771500D02*
D03*
X702500Y324000D02*
D03*
X685500D02*
D03*
X771500Y325000D02*
D03*
X788500D02*
D03*
X534500Y308000D02*
D03*
X551500D02*
D03*
X432500D02*
D03*
X415500D02*
D03*
X550500Y340000D02*
D03*
X567500D02*
D03*
X415500D02*
D03*
X432500D02*
D03*
X567500Y324000D02*
D03*
X550500D02*
D03*
X432500D02*
D03*
X415500D02*
D03*
X771500Y235000D02*
D03*
X788500D02*
D03*
D12*
X875000Y76500D02*
D03*
Y93500D02*
D03*
Y127500D02*
D03*
Y110500D02*
D03*
X791000Y158500D02*
D03*
Y175500D02*
D03*
X589000Y226500D02*
D03*
Y243500D02*
D03*
X436000Y117500D02*
D03*
Y100500D02*
D03*
X419000Y117500D02*
D03*
Y100500D02*
D03*
X692000Y106500D02*
D03*
Y89500D02*
D03*
X674000Y106500D02*
D03*
Y89500D02*
D03*
X822000Y235500D02*
D03*
Y252500D02*
D03*
X804500D02*
D03*
Y235500D02*
D03*
D13*
X765500Y79250D02*
D03*
X778250D02*
D03*
X790950D02*
D03*
X803650D02*
D03*
X816350D02*
D03*
X829050D02*
D03*
X841750D02*
D03*
X854450D02*
D03*
X765550Y136750D02*
D03*
X778250D02*
D03*
X790950D02*
D03*
X803650D02*
D03*
X816350D02*
D03*
X829050D02*
D03*
X841750D02*
D03*
X854450D02*
D03*
D14*
X905000Y112000D02*
D03*
Y82000D02*
D03*
X617000Y229000D02*
D03*
Y259000D02*
D03*
D15*
X171000Y505000D02*
D03*
X95000D02*
D03*
X92170Y257740D02*
D03*
X168170D02*
D03*
D16*
X272870Y473650D02*
D03*
D17*
X306870Y378150D02*
D03*
X289870D02*
D03*
X272870D02*
D03*
X255870D02*
D03*
X238870D02*
D03*
D18*
X310250Y279900D02*
D03*
X220250D02*
D03*
D19*
X130170Y325580D02*
D03*
Y423580D02*
D03*
D20*
X217000Y570000D02*
D03*
X169000D02*
D03*
D21*
X144000Y145000D02*
D03*
X242000D02*
D03*
D22*
X626000Y97000D02*
D03*
Y105000D02*
D03*
Y113000D02*
D03*
Y121000D02*
D03*
Y129000D02*
D03*
Y137000D02*
D03*
Y145000D02*
D03*
Y153000D02*
D03*
Y161000D02*
D03*
Y169000D02*
D03*
Y177000D02*
D03*
X516000Y97000D02*
D03*
Y105000D02*
D03*
Y113000D02*
D03*
Y121000D02*
D03*
Y129000D02*
D03*
Y137000D02*
D03*
Y145000D02*
D03*
Y153000D02*
D03*
Y161000D02*
D03*
Y169000D02*
D03*
Y177000D02*
D03*
D23*
X531000Y82000D02*
D03*
X539000D02*
D03*
X547000D02*
D03*
X555000D02*
D03*
X563000D02*
D03*
X571000D02*
D03*
X579000D02*
D03*
X587000D02*
D03*
X595000D02*
D03*
X603000D02*
D03*
X611000D02*
D03*
X531000Y192000D02*
D03*
X539000D02*
D03*
X547000D02*
D03*
X555000D02*
D03*
X563000D02*
D03*
X571000D02*
D03*
X579000D02*
D03*
X587000D02*
D03*
X595000D02*
D03*
X603000D02*
D03*
X611000D02*
D03*
D24*
X668000Y467000D02*
D03*
X688000D02*
D03*
X803000Y466000D02*
D03*
X823000D02*
D03*
X766000Y467000D02*
D03*
X746000D02*
D03*
X902000Y466000D02*
D03*
X882000D02*
D03*
X706000Y467000D02*
D03*
X726000D02*
D03*
X842000Y466000D02*
D03*
X862000D02*
D03*
X701000Y607000D02*
D03*
X681000D02*
D03*
X839000D02*
D03*
X819000D02*
D03*
X533000Y467000D02*
D03*
X553000D02*
D03*
X398000D02*
D03*
X418000D02*
D03*
X634000D02*
D03*
X614000D02*
D03*
X499000D02*
D03*
X479000D02*
D03*
X573000D02*
D03*
X593000D02*
D03*
X439000D02*
D03*
X459000D02*
D03*
X566000Y607000D02*
D03*
X546000D02*
D03*
X395000Y606000D02*
D03*
X415000D02*
D03*
X933000Y350000D02*
D03*
X913000D02*
D03*
D25*
X684500Y582510D02*
D03*
X737500D02*
D03*
X684500Y492510D02*
D03*
X737500D02*
D03*
X819290Y582510D02*
D03*
X872290D02*
D03*
X819290Y492510D02*
D03*
X872290D02*
D03*
X549710Y582510D02*
D03*
X602710D02*
D03*
X549710Y492510D02*
D03*
X602710D02*
D03*
X414920Y582510D02*
D03*
X467920D02*
D03*
X414920Y492510D02*
D03*
X467920D02*
D03*
D26*
X220000Y620000D02*
Y641000D01*
Y603999D02*
Y620000D01*
Y526520D02*
Y603999D01*
X272870Y473650D02*
X273000Y473780D01*
Y543000D01*
X272220Y473000D02*
X272870Y473650D01*
X209000Y473000D02*
X272220D01*
X272870Y378150D02*
Y473650D01*
X339650D01*
X220000Y526520D02*
X272870Y473650D01*
X289870Y332000D02*
Y378150D01*
X310250Y279900D02*
Y311620D01*
X171000Y505000D02*
Y620000D01*
X242000Y211650D02*
X306500Y276150D01*
X310250Y279900D02*
X311350Y281000D01*
X272870Y473650D02*
X306870Y439650D01*
Y378150D02*
Y439650D01*
X242000Y145000D02*
Y211650D01*
X289870Y332000D02*
X310250Y311620D01*
X227750Y279900D02*
X238900D01*
X220250D02*
X227750D01*
X255870Y296870D02*
Y378150D01*
X238900Y279900D02*
X255870Y296870D01*
X190330Y279900D02*
X220250D01*
X168170Y257740D02*
X190330Y279900D01*
X168420Y423580D02*
X213850Y378150D01*
X130170Y423580D02*
X168420D01*
X213850Y378150D02*
X238870D01*
X130170Y434830D02*
Y468830D01*
X87000Y504000D02*
X95000D01*
X130170Y468830D01*
X872290Y582510D02*
X873000Y583220D01*
Y615000D01*
X737500Y582510D02*
X738000Y583010D01*
Y615000D01*
X603270Y583070D02*
Y614270D01*
X604000Y615000D01*
X546000Y586220D02*
Y632000D01*
Y586220D02*
X549710Y582510D01*
X681000Y586010D02*
Y632000D01*
Y586010D02*
X684500Y582510D01*
X818730Y583070D02*
Y631270D01*
X818000Y632000D02*
X818730Y631270D01*
X415000Y582590D02*
Y606000D01*
Y632000D01*
X414920Y582510D02*
X415000Y582590D01*
X467920Y582510D02*
Y614920D01*
X196000Y621000D02*
X243000D01*
D27*
X819290Y490000D02*
Y492510D01*
Y490000D02*
X823000Y486290D01*
Y466000D02*
Y486290D01*
X582000Y507000D02*
Y590000D01*
X573000Y498000D02*
X582000Y507000D01*
X573000Y467000D02*
Y498000D01*
X902000Y603000D02*
Y622000D01*
X888000Y636000D02*
X902000Y622000D01*
X863000Y636000D02*
X888000D01*
X852000Y625000D02*
X863000Y636000D01*
X238190Y345940D02*
X238870Y346620D01*
Y378150D01*
X788500Y309000D02*
Y352500D01*
X798250Y362250D02*
X820390D01*
X788500Y352500D02*
X798250Y362250D01*
X416020Y308520D02*
Y324000D01*
Y362250D01*
X415500Y308000D02*
X416020Y308520D01*
X550810Y308310D02*
Y324000D01*
Y362250D01*
X550500Y308000D02*
X550810Y308310D01*
X685600Y308100D02*
Y324000D01*
Y362250D01*
X685500Y308000D02*
X685600Y308100D01*
X788610Y325000D02*
Y340890D01*
X788500Y341000D02*
X788610Y340890D01*
X582000Y590000D02*
Y595000D01*
Y590000D02*
Y627000D01*
X591000Y636000D01*
X621000D01*
X634000Y623000D01*
Y603000D02*
Y623000D01*
X842000Y466000D02*
Y499000D01*
X852000Y509000D01*
Y625000D01*
X716000Y505000D02*
Y628000D01*
X706000Y495000D02*
X716000Y505000D01*
Y628000D02*
X724000Y636000D01*
X754000D01*
X767000Y623000D01*
Y603000D02*
Y623000D01*
X439000Y467000D02*
Y621000D01*
X456000Y638000D01*
X489000D01*
X499000Y628000D01*
Y603000D02*
Y628000D01*
X603270Y583070D02*
X634000D01*
X634000Y566070D02*
Y583000D01*
X634000Y583000D02*
X634000Y583000D01*
X738060Y583070D02*
X767000D01*
Y566070D02*
Y583000D01*
X902000Y566400D02*
Y583000D01*
X767000Y530510D02*
Y546070D01*
X766000Y509510D02*
X767000Y510510D01*
X766000Y467000D02*
Y509510D01*
Y467000D02*
X767000Y468000D01*
X468480Y583070D02*
X499000D01*
X467920Y614920D02*
X468000Y615000D01*
X499000Y566070D02*
Y583000D01*
Y530510D02*
Y546070D01*
X875000Y93500D02*
Y110500D01*
X899500Y76500D02*
X905000Y82000D01*
X875000Y76500D02*
X899500D01*
X855000D02*
X875000D01*
X841750Y123250D02*
Y136750D01*
Y123250D02*
X845000Y120000D01*
X861000D01*
X868000Y127000D01*
X874500D01*
X875000Y127500D01*
X854450Y136750D02*
Y156950D01*
X840500Y156500D02*
Y159000D01*
X829050Y145050D02*
X840500Y156500D01*
X829050Y136750D02*
Y145050D01*
X822500Y152500D02*
Y159000D01*
X816350Y146350D02*
X822500Y152500D01*
X816350Y136750D02*
Y146350D01*
X803650Y157150D02*
X805500Y159000D01*
X803650Y136750D02*
Y157150D01*
X790950Y136750D02*
Y158450D01*
X822000Y235500D02*
X858200D01*
X804500D02*
X822000D01*
X787000D02*
X804500D01*
X858200D02*
X858600Y235900D01*
X418000Y467000D02*
Y489430D01*
X439000Y467000D02*
X441420Y464580D01*
Y438450D02*
Y464580D01*
X459000Y467000D02*
Y483590D01*
X467920Y492510D01*
X479000Y450630D02*
Y467000D01*
X466820Y438450D02*
X479000Y450630D01*
X499000Y433000D02*
Y467000D01*
X484000Y418000D02*
X499000Y433000D01*
X403000Y418000D02*
X484000D01*
X396000Y425000D02*
X403000Y418000D01*
X396000Y425000D02*
Y465000D01*
X398000Y467000D01*
X499000D02*
Y510510D01*
X593000Y467000D02*
Y482800D01*
X602710Y492510D01*
X549710D02*
X553000Y489220D01*
Y467000D02*
Y489220D01*
X573000Y467000D02*
X576210Y463790D01*
Y438450D02*
Y463790D01*
X614000Y450840D02*
Y467000D01*
X601610Y438450D02*
X614000Y450840D01*
X634000Y432000D02*
Y510510D01*
X619000Y417000D02*
X634000Y432000D01*
X541000Y417000D02*
X619000D01*
X531000Y427000D02*
X541000Y417000D01*
X531000Y427000D02*
Y465000D01*
X533000Y467000D01*
X634000Y530510D02*
Y546070D01*
X842000Y466000D02*
X845790Y462210D01*
Y438450D02*
Y462210D01*
X862000Y466000D02*
Y482220D01*
X872290Y492510D01*
X882000Y449260D02*
Y466000D01*
X871190Y438450D02*
X882000Y449260D01*
X801000Y427360D02*
X812770Y415590D01*
X801000Y427360D02*
Y464000D01*
X803000Y466000D01*
X802000Y426360D02*
X812770Y415590D01*
X902000Y423540D02*
Y466000D01*
X901670D02*
Y510510D01*
X894050Y415590D02*
X902000Y423540D01*
X706000Y467000D02*
Y495000D01*
X746000Y448050D02*
Y467000D01*
X736400Y438450D02*
X746000Y448050D01*
X706000Y467000D02*
X711000Y462000D01*
Y438450D02*
Y462000D01*
X726000Y481010D02*
X737500Y492510D01*
X726000Y467000D02*
Y481010D01*
X753000Y416000D02*
X766000Y429000D01*
X677000Y416000D02*
X753000D01*
X766000Y429000D02*
Y467000D01*
X666000Y427000D02*
X677000Y416000D01*
X666000Y427000D02*
Y463000D01*
X670000Y467000D01*
X684500Y492510D02*
X688102Y488908D01*
Y468898D02*
Y488908D01*
Y468898D02*
X690000Y467000D01*
X812770Y415590D02*
X894050D01*
X872850Y583070D02*
X877000Y587220D01*
X872850Y583070D02*
X901670D01*
X681000Y586010D02*
Y608000D01*
X819290Y489080D02*
Y492510D01*
X815470Y488690D02*
X819290Y492510D01*
X872290D02*
X876110Y488690D01*
X901670Y530510D02*
Y546070D01*
X818730Y583070D02*
X819290Y582510D01*
X820230Y583450D01*
D28*
X644000Y25000D02*
X774998D01*
X310250Y135000D02*
Y279900D01*
X638000Y31000D02*
X644000Y25000D01*
X774998D02*
X779998Y20000D01*
X628000Y41000D02*
X638000Y31000D01*
X310250Y135000D02*
X404250Y41000D01*
X628000D01*
X905000Y47000D02*
Y82000D01*
X878000Y20000D02*
X905000Y47000D01*
X779998Y20000D02*
X878000D01*
X649000Y658000D02*
X881000D01*
X516000D02*
X649000D01*
X205000D02*
X516000D01*
X901670Y546070D02*
X912070D01*
X920000Y554000D01*
Y619000D01*
X881000Y658000D02*
X920000Y619000D01*
X171000Y624000D02*
X205000Y658000D01*
X171000Y620000D02*
Y624000D01*
X436500Y117500D02*
Y194400D01*
X351000Y279900D02*
X436500Y194400D01*
X310250Y279900D02*
X351000D01*
X436500Y117000D02*
X463000D01*
X939000Y431000D02*
Y632000D01*
X913000Y405000D02*
X939000Y431000D01*
X913000Y350000D02*
Y405000D01*
X823000Y274000D02*
X824000Y273000D01*
X866000D01*
X762000D02*
X824000D01*
X823000Y274000D02*
Y290999D01*
Y323000D01*
Y287000D02*
Y290999D01*
X866000Y273000D02*
X884000Y255000D01*
Y235900D02*
Y255000D01*
X617000Y259000D02*
X748000D01*
X762000Y273000D01*
X710000Y391000D02*
X837000D01*
X577000D02*
X710000D01*
X711000Y390000D01*
Y362250D02*
Y390000D01*
X576210Y390210D02*
X577000Y391000D01*
X377000D02*
X577000D01*
X576210Y362250D02*
Y390210D01*
X441420Y362250D02*
Y390420D01*
X845790Y362250D02*
Y382210D01*
Y345790D02*
Y362250D01*
X823000Y323000D02*
X845790Y345790D01*
X837000Y391000D02*
X845790Y382210D01*
X351000Y365000D02*
X377000Y391000D01*
X351000Y279900D02*
Y365000D01*
X902000Y350000D02*
X913000D01*
X884000Y332000D02*
X902000Y350000D01*
X884000Y312100D02*
Y332000D01*
X829050Y65950D02*
X849000Y46000D01*
X829050Y65950D02*
Y79250D01*
X803000Y46000D02*
X816350Y59350D01*
Y79250D01*
D29*
X803650D02*
Y98350D01*
X788000Y114000D02*
X803650Y98350D01*
X733000Y114000D02*
X788000D01*
X655000Y192000D02*
X733000Y114000D01*
X611000Y192000D02*
X655000D01*
X655000Y177000D02*
X727500Y104500D01*
X777500D01*
X790950Y91050D01*
X783000Y551000D02*
Y656000D01*
X778070Y546070D02*
X783000Y551000D01*
X767000Y546070D02*
X778070D01*
X649000Y550000D02*
Y658000D01*
X645070Y546070D02*
X649000Y550000D01*
X634000Y546070D02*
X645070D01*
X515000Y657000D02*
X516000Y658000D01*
X515000Y553000D02*
Y657000D01*
X508070Y546070D02*
X515000Y553000D01*
X499000Y546070D02*
X508070D01*
X459000Y101000D02*
X463000Y97000D01*
X440500Y101000D02*
X459000D01*
X579000Y66500D02*
X587500Y58000D01*
X579000Y66500D02*
Y82000D01*
X570500Y58000D02*
X571000Y58500D01*
Y82000D01*
X563000Y102500D02*
Y192000D01*
X571000Y82000D02*
Y94500D01*
X563000Y102500D02*
X571000Y94500D01*
X589000Y243500D02*
X589500D01*
X571500D02*
X589000D01*
X605000Y259000D02*
X617000D01*
X589500Y243500D02*
X605000Y259000D01*
X563000Y235000D02*
X571500Y243500D01*
X563000Y192000D02*
Y235000D01*
X790950Y79250D02*
Y91050D01*
X626000Y177000D02*
X655000D01*
X707000Y68500D02*
Y74500D01*
X692000Y89500D02*
X707000Y74500D01*
X662000Y68500D02*
Y77500D01*
X674000Y89500D01*
X626000Y137000D02*
X672000D01*
X692000Y117000D01*
Y106500D02*
Y117000D01*
X674000Y106500D02*
Y118000D01*
X663000Y129000D02*
X674000Y118000D01*
X626000Y129000D02*
X663000D01*
X752000Y308000D02*
X771500D01*
X732000Y288000D02*
X752000Y308000D01*
X594000Y288000D02*
X732000D01*
X555000Y249000D02*
X594000Y288000D01*
X555000Y192000D02*
Y249000D01*
X603000Y308000D02*
X668500D01*
X547000Y252000D02*
X603000Y308000D01*
X547000Y192000D02*
Y252000D01*
X626000Y113000D02*
X649000D01*
X710000Y173500D02*
X771500Y235000D01*
X531000Y192000D02*
Y221000D01*
X445000Y307000D02*
X531000Y221000D01*
X433500Y307000D02*
X445000D01*
X432500Y308000D02*
X433500Y307000D01*
X539000Y192000D02*
Y252000D01*
X534500Y256500D02*
X539000Y252000D01*
X534500Y256500D02*
Y308000D01*
X463000Y97000D02*
X479000D01*
X488000Y106000D01*
Y118000D01*
X499000Y129000D01*
X516000D01*
X465000Y157000D02*
X485000Y137000D01*
X516000D01*
X463000Y157000D02*
X465000D01*
X497000Y151000D02*
X503000Y145000D01*
X497000Y151000D02*
Y170000D01*
X490000Y177000D02*
X497000Y170000D01*
X503000Y145000D02*
X516000D01*
X463000Y177000D02*
X490000D01*
X419000Y100500D02*
X436000D01*
X463000Y177000D02*
X474000D01*
D30*
X1005000Y675000D02*
D03*
X10000D02*
D03*
Y10000D02*
D03*
X1005000D02*
D03*
D31*
X849000Y46000D02*
D03*
X803000D02*
D03*
X604000Y615000D02*
D03*
X738000D02*
D03*
X873000D02*
D03*
X939000Y632000D02*
D03*
X818000D02*
D03*
X681000D02*
D03*
X546000D02*
D03*
X468000Y615000D02*
D03*
X415000Y632000D02*
D03*
D32*
X171000Y620000D02*
D03*
X220000D02*
D03*
D33*
X302750Y279900D02*
D03*
X227750D02*
D03*
X685600Y362250D02*
D03*
X711000D02*
D03*
X736400D02*
D03*
X685600Y438450D02*
D03*
X711000D02*
D03*
X820390Y362250D02*
D03*
X845790D02*
D03*
X871190D02*
D03*
X820390Y438450D02*
D03*
X845790D02*
D03*
X550810Y362250D02*
D03*
X576210D02*
D03*
X601610D02*
D03*
X550810Y438450D02*
D03*
X576210D02*
D03*
X416020Y362250D02*
D03*
X441420D02*
D03*
X466820D02*
D03*
X416020Y438450D02*
D03*
X441420D02*
D03*
X858600Y235900D02*
D03*
X884000D02*
D03*
X909400D02*
D03*
X858600Y312100D02*
D03*
X884000D02*
D03*
D34*
X463000Y97000D02*
D03*
D35*
Y117000D02*
D03*
Y177000D02*
D03*
Y157000D02*
D03*
Y137000D02*
D03*
D36*
X736400Y438450D02*
D03*
X871190D02*
D03*
X601610D02*
D03*
X466820D02*
D03*
X909400Y312100D02*
D03*
D37*
X364000Y147000D02*
D03*
X363000Y182000D02*
D03*
X362000Y217000D02*
D03*
X625000Y61000D02*
D03*
X497000Y203000D02*
D03*
X468000Y227000D02*
D03*
X439000Y253000D02*
D03*
X410000Y278000D02*
D03*
X777000Y256000D02*
D03*
X809000Y338000D02*
D03*
X730000Y328000D02*
D03*
X1000000Y63000D02*
D03*
Y83000D02*
D03*
Y103000D02*
D03*
Y123000D02*
D03*
Y143000D02*
D03*
Y163000D02*
D03*
Y183000D02*
D03*
Y203000D02*
D03*
Y223000D02*
D03*
Y243000D02*
D03*
Y263000D02*
D03*
Y283000D02*
D03*
Y303000D02*
D03*
Y323000D02*
D03*
Y343000D02*
D03*
Y363000D02*
D03*
Y383000D02*
D03*
Y403000D02*
D03*
Y423000D02*
D03*
Y443000D02*
D03*
Y463000D02*
D03*
Y483000D02*
D03*
Y503000D02*
D03*
Y523000D02*
D03*
Y543000D02*
D03*
Y563000D02*
D03*
Y583000D02*
D03*
Y603000D02*
D03*
Y623000D02*
D03*
X13000D02*
D03*
Y603000D02*
D03*
Y583000D02*
D03*
Y563000D02*
D03*
Y543000D02*
D03*
Y523000D02*
D03*
Y503000D02*
D03*
Y483000D02*
D03*
Y463000D02*
D03*
Y443000D02*
D03*
Y423000D02*
D03*
Y403000D02*
D03*
Y383000D02*
D03*
Y363000D02*
D03*
Y343000D02*
D03*
Y323000D02*
D03*
Y303000D02*
D03*
Y283000D02*
D03*
Y263000D02*
D03*
Y243000D02*
D03*
Y223000D02*
D03*
Y203000D02*
D03*
Y183000D02*
D03*
Y163000D02*
D03*
Y143000D02*
D03*
Y123000D02*
D03*
Y103000D02*
D03*
Y83000D02*
D03*
Y63000D02*
D03*
X64000Y11000D02*
D03*
X84000D02*
D03*
X104000D02*
D03*
X124000D02*
D03*
X144000D02*
D03*
X164000D02*
D03*
X184000D02*
D03*
X204000D02*
D03*
X224000D02*
D03*
X244000D02*
D03*
X264000D02*
D03*
X284000D02*
D03*
X304000D02*
D03*
X324000D02*
D03*
X344000D02*
D03*
X364000D02*
D03*
X384000D02*
D03*
X404000D02*
D03*
X424000D02*
D03*
X444000D02*
D03*
X464000D02*
D03*
X484000D02*
D03*
X504000D02*
D03*
X524000D02*
D03*
X544000D02*
D03*
X564000D02*
D03*
X584000D02*
D03*
X604000D02*
D03*
X624000D02*
D03*
X644000D02*
D03*
X664000D02*
D03*
X684000D02*
D03*
X704000D02*
D03*
X724000D02*
D03*
X744000D02*
D03*
X764000D02*
D03*
X950000Y673000D02*
D03*
X930000D02*
D03*
X910000D02*
D03*
X890000D02*
D03*
X870000D02*
D03*
X850000D02*
D03*
X830000D02*
D03*
X810000D02*
D03*
X790000D02*
D03*
X770000D02*
D03*
X750000D02*
D03*
X730000D02*
D03*
X710000D02*
D03*
X690000D02*
D03*
X670000D02*
D03*
X650000D02*
D03*
X630000D02*
D03*
X610000D02*
D03*
X590000D02*
D03*
X570000D02*
D03*
X550000D02*
D03*
X530000D02*
D03*
X510000D02*
D03*
X490000D02*
D03*
X470000D02*
D03*
X450000D02*
D03*
X430000D02*
D03*
X410000D02*
D03*
X390000D02*
D03*
X370000D02*
D03*
X350000D02*
D03*
X330000D02*
D03*
X310000D02*
D03*
X290000D02*
D03*
X270000D02*
D03*
X250000D02*
D03*
X230000D02*
D03*
X210000D02*
D03*
X190000D02*
D03*
X170000D02*
D03*
X150000D02*
D03*
X130000D02*
D03*
X110000D02*
D03*
X90000D02*
D03*
X70000D02*
D03*
X463000Y329000D02*
D03*
X483000Y313000D02*
D03*
X501000Y294000D02*
D03*
X512000Y270000D02*
D03*
X594000Y332000D02*
D03*
X626000D02*
D03*
X638000Y360000D02*
D03*
X656000Y229000D02*
D03*
X695000D02*
D03*
X683000Y206000D02*
D03*
X791000Y204000D02*
D03*
X830000D02*
D03*
X869000D02*
D03*
X850000D02*
D03*
X811000D02*
D03*
X279000Y578000D02*
D03*
X312000Y579000D02*
D03*
X342000D02*
D03*
X367000D02*
D03*
X368000Y545000D02*
D03*
X367000Y518000D02*
D03*
X368000Y490000D02*
D03*
X500000Y405000D02*
D03*
X637000Y404000D02*
D03*
X771000Y407000D02*
D03*
X739000Y48000D02*
D03*
X755000D02*
D03*
X816000Y115000D02*
D03*
X588000D02*
D03*
X542000Y113000D02*
D03*
X416000Y537000D02*
D03*
X463000D02*
D03*
X557000D02*
D03*
X605000D02*
D03*
X691000D02*
D03*
X737000D02*
D03*
X828000D02*
D03*
X872000D02*
D03*
X864000Y394000D02*
D03*
X884000Y283000D02*
D03*
X913000Y266000D02*
D03*
X241000Y504000D02*
D03*
Y487000D02*
D03*
Y470000D02*
D03*
Y453000D02*
D03*
Y436000D02*
D03*
X258000Y504000D02*
D03*
Y487000D02*
D03*
Y470000D02*
D03*
Y453000D02*
D03*
Y436000D02*
D03*
X275000Y504000D02*
D03*
Y487000D02*
D03*
Y470000D02*
D03*
Y453000D02*
D03*
Y436000D02*
D03*
X292000Y504000D02*
D03*
Y487000D02*
D03*
Y470000D02*
D03*
Y453000D02*
D03*
Y436000D02*
D03*
X309000Y504000D02*
D03*
Y487000D02*
D03*
Y470000D02*
D03*
Y453000D02*
D03*
Y436000D02*
D03*
X413000Y405000D02*
D03*
X468000D02*
D03*
X601000Y404000D02*
D03*
X547000D02*
D03*
X737000D02*
D03*
X683000D02*
D03*
X845000Y402000D02*
D03*
X880000Y387000D02*
D03*
X770000Y366000D02*
D03*
X669000Y274000D02*
D03*
X703000D02*
D03*
X739000D02*
D03*
X771000Y204000D02*
D03*
X756000Y195000D02*
D03*
X743000Y166000D02*
D03*
X742000Y149000D02*
D03*
Y133000D02*
D03*
X771000Y48000D02*
D03*
X731000Y64000D02*
D03*
Y82000D02*
D03*
X744000Y182000D02*
D03*
X887000Y204000D02*
D03*
X905000D02*
D03*
X924000D02*
D03*
X588000Y158000D02*
D03*
X543000Y157000D02*
D03*
X841000Y101000D02*
D03*
D38*
X710000Y173500D02*
D03*
X649000Y113000D02*
D03*
M02*
