%FSLAX44Y44*%
%MOMM*%
G71*
G01*
G75*
G04 Layer_Physical_Order=2*
G04 Layer_Color=16711680*
%ADD10R,1.5000X1.0000*%
%ADD11R,0.9000X1.0000*%
%ADD12R,1.0000X0.9000*%
%ADD13R,0.6000X1.3000*%
%ADD14R,2.2000X2.0000*%
%ADD15R,3.0000X4.0000*%
%ADD16R,10.5000X10.4000*%
%ADD17R,1.1000X3.5000*%
%ADD18R,3.0000X5.0000*%
%ADD19R,2.5000X5.7000*%
%ADD20R,1.6000X3.0000*%
%ADD21R,5.7000X2.5000*%
%ADD22R,1.6000X0.5000*%
%ADD23R,0.5000X1.6000*%
%ADD24R,1.0000X1.5000*%
%ADD25R,1.8000X2.0000*%
%ADD26C,1.0000*%
%ADD27C,0.5000*%
%ADD28C,0.6000*%
%ADD29C,0.4000*%
%ADD30C,7.0000*%
%ADD31C,2.5000*%
%ADD32C,3.0000*%
%ADD33C,2.0000*%
%ADD34R,1.6000X1.6000*%
%ADD35C,1.6000*%
%ADD36R,2.0000X2.0000*%
%ADD37C,1.2000*%
%ADD38C,1.2700*%
G36*
X961701Y679485D02*
X961407Y675000D01*
X961780Y669310D01*
X962892Y663717D01*
X964725Y658318D01*
X967247Y653203D01*
X970415Y648462D01*
X974175Y644175D01*
X978462Y640415D01*
X983203Y637247D01*
X988318Y634725D01*
X993717Y632892D01*
X999310Y631780D01*
X1005000Y631407D01*
X1009485Y631701D01*
X1010412Y630832D01*
Y54168D01*
X1009485Y53299D01*
X1005000Y53593D01*
X999310Y53220D01*
X993717Y52108D01*
X988318Y50275D01*
X983203Y47753D01*
X978462Y44585D01*
X974175Y40825D01*
X970415Y36538D01*
X967247Y31797D01*
X964725Y26682D01*
X962892Y21283D01*
X961780Y15690D01*
X961407Y10000D01*
X961701Y5515D01*
X960832Y4588D01*
X54168D01*
X53299Y5515D01*
X53593Y10000D01*
X53220Y15690D01*
X52108Y21283D01*
X50275Y26682D01*
X47753Y31797D01*
X44585Y36538D01*
X40825Y40825D01*
X36538Y44585D01*
X31797Y47753D01*
X26682Y50275D01*
X21283Y52108D01*
X15690Y53220D01*
X10000Y53593D01*
X5515Y53299D01*
X4588Y54168D01*
Y630832D01*
X5515Y631701D01*
X10000Y631407D01*
X15690Y631780D01*
X21283Y632892D01*
X26682Y634725D01*
X31797Y637247D01*
X36538Y640415D01*
X40825Y644175D01*
X44585Y648462D01*
X47753Y653203D01*
X50275Y658318D01*
X52108Y663717D01*
X53220Y669310D01*
X53593Y675000D01*
X53299Y679485D01*
X54168Y680412D01*
X960832D01*
X961701Y679485D01*
D02*
G37*
%LPC*%
G36*
X601610Y375867D02*
X598086Y375402D01*
X594802Y374042D01*
X591982Y371878D01*
X589818Y369058D01*
X589545Y368400D01*
X588275D01*
X588002Y369058D01*
X585838Y371878D01*
X583018Y374042D01*
X579734Y375402D01*
X576210Y375867D01*
X572686Y375402D01*
X569402Y374042D01*
X566582Y371878D01*
X564418Y369058D01*
X564145Y368400D01*
X562875D01*
X562602Y369058D01*
X560438Y371878D01*
X557618Y374042D01*
X554334Y375402D01*
X550810Y375867D01*
X547286Y375402D01*
X544002Y374042D01*
X541182Y371878D01*
X539018Y369058D01*
X537658Y365774D01*
X537194Y362250D01*
X537658Y358726D01*
X539018Y355442D01*
X541182Y352622D01*
X544002Y350458D01*
X547286Y349098D01*
X550810Y348633D01*
X554334Y349098D01*
X557618Y350458D01*
X560438Y352622D01*
X562602Y355442D01*
X562875Y356100D01*
X564145D01*
X564418Y355442D01*
X566582Y352622D01*
X569402Y350458D01*
X572686Y349098D01*
X576210Y348633D01*
X579734Y349098D01*
X583018Y350458D01*
X585838Y352622D01*
X588002Y355442D01*
X588275Y356100D01*
X589545D01*
X589818Y355442D01*
X591982Y352622D01*
X594802Y350458D01*
X598086Y349098D01*
X601610Y348633D01*
X605134Y349098D01*
X608418Y350458D01*
X611238Y352622D01*
X613402Y355442D01*
X614762Y358726D01*
X615227Y362250D01*
X614762Y365774D01*
X613402Y369058D01*
X611238Y371878D01*
X608418Y374042D01*
X605134Y375402D01*
X601610Y375867D01*
D02*
G37*
G36*
X466820D02*
X463296Y375402D01*
X460012Y374042D01*
X457192Y371878D01*
X455028Y369058D01*
X454755Y368400D01*
X453485D01*
X453212Y369058D01*
X451048Y371878D01*
X448228Y374042D01*
X444944Y375402D01*
X441420Y375867D01*
X437896Y375402D01*
X434612Y374042D01*
X431792Y371878D01*
X429628Y369058D01*
X429355Y368400D01*
X428085D01*
X427812Y369058D01*
X425648Y371878D01*
X422828Y374042D01*
X419544Y375402D01*
X416020Y375867D01*
X412496Y375402D01*
X409212Y374042D01*
X406392Y371878D01*
X404228Y369058D01*
X402868Y365774D01*
X402404Y362250D01*
X402868Y358726D01*
X404228Y355442D01*
X406392Y352622D01*
X409212Y350458D01*
X412496Y349098D01*
X416020Y348633D01*
X419544Y349098D01*
X422828Y350458D01*
X425648Y352622D01*
X427812Y355442D01*
X428085Y356100D01*
X429355D01*
X429628Y355442D01*
X431792Y352622D01*
X434612Y350458D01*
X437896Y349098D01*
X441420Y348633D01*
X444944Y349098D01*
X448228Y350458D01*
X451048Y352622D01*
X453212Y355442D01*
X453485Y356100D01*
X454755D01*
X455028Y355442D01*
X457192Y352622D01*
X460012Y350458D01*
X463296Y349098D01*
X466820Y348633D01*
X470344Y349098D01*
X473628Y350458D01*
X476448Y352622D01*
X478612Y355442D01*
X479972Y358726D01*
X480437Y362250D01*
X479972Y365774D01*
X478612Y369058D01*
X476448Y371878D01*
X473628Y374042D01*
X470344Y375402D01*
X466820Y375867D01*
D02*
G37*
G36*
X884000Y325717D02*
X880476Y325252D01*
X877192Y323892D01*
X874372Y321728D01*
X872208Y318908D01*
X871935Y318250D01*
X870665D01*
X870392Y318908D01*
X868228Y321728D01*
X865408Y323892D01*
X862124Y325252D01*
X858600Y325717D01*
X855076Y325252D01*
X851792Y323892D01*
X848972Y321728D01*
X846808Y318908D01*
X845448Y315624D01*
X844984Y312100D01*
X845448Y308576D01*
X846808Y305292D01*
X848972Y302472D01*
X851792Y300308D01*
X855076Y298948D01*
X858600Y298484D01*
X862124Y298948D01*
X865408Y300308D01*
X868228Y302472D01*
X870392Y305292D01*
X870665Y305950D01*
X871935D01*
X872208Y305292D01*
X874372Y302472D01*
X877192Y300308D01*
X880476Y298948D01*
X884000Y298484D01*
X887524Y298948D01*
X890808Y300308D01*
X893628Y302472D01*
X894697Y303865D01*
X895900Y303457D01*
Y298600D01*
X922900D01*
Y325600D01*
X895900D01*
Y320743D01*
X894697Y320335D01*
X893628Y321728D01*
X890808Y323892D01*
X887524Y325252D01*
X884000Y325717D01*
D02*
G37*
G36*
X736400Y375867D02*
X732876Y375402D01*
X729592Y374042D01*
X726772Y371878D01*
X724608Y369058D01*
X724335Y368400D01*
X723065D01*
X722792Y369058D01*
X720628Y371878D01*
X717808Y374042D01*
X714524Y375402D01*
X711000Y375867D01*
X707476Y375402D01*
X704192Y374042D01*
X701372Y371878D01*
X699208Y369058D01*
X698935Y368400D01*
X697665D01*
X697392Y369058D01*
X695228Y371878D01*
X692408Y374042D01*
X689124Y375402D01*
X685600Y375867D01*
X682076Y375402D01*
X678792Y374042D01*
X675972Y371878D01*
X673808Y369058D01*
X672448Y365774D01*
X671984Y362250D01*
X672448Y358726D01*
X673808Y355442D01*
X675972Y352622D01*
X678792Y350458D01*
X682076Y349098D01*
X685600Y348633D01*
X689124Y349098D01*
X692408Y350458D01*
X695228Y352622D01*
X697392Y355442D01*
X697665Y356100D01*
X698935D01*
X699208Y355442D01*
X701372Y352622D01*
X704192Y350458D01*
X707476Y349098D01*
X711000Y348633D01*
X714524Y349098D01*
X717808Y350458D01*
X720628Y352622D01*
X722792Y355442D01*
X723065Y356100D01*
X724335D01*
X724608Y355442D01*
X726772Y352622D01*
X729592Y350458D01*
X732876Y349098D01*
X736400Y348633D01*
X739924Y349098D01*
X743208Y350458D01*
X746028Y352622D01*
X748192Y355442D01*
X749553Y358726D01*
X750016Y362250D01*
X749553Y365774D01*
X748192Y369058D01*
X746028Y371878D01*
X743208Y374042D01*
X739924Y375402D01*
X736400Y375867D01*
D02*
G37*
G36*
X576210Y452066D02*
X572686Y451603D01*
X569402Y450242D01*
X566582Y448078D01*
X564418Y445258D01*
X564145Y444600D01*
X562875D01*
X562602Y445258D01*
X560438Y448078D01*
X557618Y450242D01*
X554334Y451603D01*
X550810Y452066D01*
X547286Y451603D01*
X544002Y450242D01*
X541182Y448078D01*
X539018Y445258D01*
X537658Y441974D01*
X537194Y438450D01*
X537658Y434926D01*
X539018Y431642D01*
X541182Y428822D01*
X544002Y426658D01*
X547286Y425298D01*
X550810Y424833D01*
X554334Y425298D01*
X557618Y426658D01*
X560438Y428822D01*
X562602Y431642D01*
X562875Y432300D01*
X564145D01*
X564418Y431642D01*
X566582Y428822D01*
X569402Y426658D01*
X572686Y425298D01*
X576210Y424833D01*
X579734Y425298D01*
X583018Y426658D01*
X585838Y428822D01*
X586907Y430215D01*
X588110Y429807D01*
Y424950D01*
X615110D01*
Y451950D01*
X588110D01*
Y447093D01*
X586907Y446685D01*
X585838Y448078D01*
X583018Y450242D01*
X579734Y451603D01*
X576210Y452066D01*
D02*
G37*
G36*
X441420D02*
X437896Y451603D01*
X434612Y450242D01*
X431792Y448078D01*
X429628Y445258D01*
X429355Y444600D01*
X428085D01*
X427812Y445258D01*
X425648Y448078D01*
X422828Y450242D01*
X419544Y451603D01*
X416020Y452066D01*
X412496Y451603D01*
X409212Y450242D01*
X406392Y448078D01*
X404228Y445258D01*
X402868Y441974D01*
X402404Y438450D01*
X402868Y434926D01*
X404228Y431642D01*
X406392Y428822D01*
X409212Y426658D01*
X412496Y425298D01*
X416020Y424833D01*
X419544Y425298D01*
X422828Y426658D01*
X425648Y428822D01*
X427812Y431642D01*
X428085Y432300D01*
X429355D01*
X429628Y431642D01*
X431792Y428822D01*
X434612Y426658D01*
X437896Y425298D01*
X441420Y424833D01*
X444944Y425298D01*
X448228Y426658D01*
X451048Y428822D01*
X452117Y430215D01*
X453320Y429807D01*
Y424950D01*
X480320D01*
Y451950D01*
X453320D01*
Y447093D01*
X452117Y446685D01*
X451048Y448078D01*
X448228Y450242D01*
X444944Y451603D01*
X441420Y452066D01*
D02*
G37*
G36*
X871190Y375867D02*
X867666Y375402D01*
X864382Y374042D01*
X861562Y371878D01*
X859398Y369058D01*
X859125Y368400D01*
X857855D01*
X857582Y369058D01*
X855418Y371878D01*
X852598Y374042D01*
X849314Y375402D01*
X845790Y375867D01*
X842266Y375402D01*
X838982Y374042D01*
X836162Y371878D01*
X833998Y369058D01*
X833725Y368400D01*
X832455D01*
X832182Y369058D01*
X830018Y371878D01*
X827198Y374042D01*
X823914Y375402D01*
X820390Y375867D01*
X816866Y375402D01*
X813582Y374042D01*
X810762Y371878D01*
X808598Y369058D01*
X807238Y365774D01*
X806774Y362250D01*
X807238Y358726D01*
X808598Y355442D01*
X810762Y352622D01*
X813582Y350458D01*
X816866Y349098D01*
X820390Y348633D01*
X823914Y349098D01*
X827198Y350458D01*
X830018Y352622D01*
X832182Y355442D01*
X832455Y356100D01*
X833725D01*
X833998Y355442D01*
X836162Y352622D01*
X838982Y350458D01*
X842266Y349098D01*
X845790Y348633D01*
X849314Y349098D01*
X852598Y350458D01*
X855418Y352622D01*
X857582Y355442D01*
X857855Y356100D01*
X859125D01*
X859398Y355442D01*
X861562Y352622D01*
X864382Y350458D01*
X867666Y349098D01*
X871190Y348633D01*
X874714Y349098D01*
X877998Y350458D01*
X880818Y352622D01*
X882982Y355442D01*
X884343Y358726D01*
X884807Y362250D01*
X884343Y365774D01*
X882982Y369058D01*
X880818Y371878D01*
X877998Y374042D01*
X874714Y375402D01*
X871190Y375867D01*
D02*
G37*
G36*
X302750Y293516D02*
X299226Y293052D01*
X295942Y291692D01*
X293122Y289528D01*
X290958Y286708D01*
X289597Y283424D01*
X289133Y279900D01*
X289597Y276376D01*
X290958Y273092D01*
X293122Y270272D01*
X295942Y268108D01*
X299226Y266747D01*
X302750Y266283D01*
X306274Y266747D01*
X309558Y268108D01*
X312378Y270272D01*
X314542Y273092D01*
X315903Y276376D01*
X316367Y279900D01*
X315903Y283424D01*
X314542Y286708D01*
X312378Y289528D01*
X309558Y291692D01*
X306274Y293052D01*
X302750Y293516D01*
D02*
G37*
G36*
X474432Y135730D02*
X451568D01*
X451796Y133998D01*
X452955Y131200D01*
X454798Y128798D01*
X456314Y127635D01*
Y126365D01*
X454798Y125202D01*
X452955Y122800D01*
X451796Y120002D01*
X451401Y117000D01*
X451796Y113998D01*
X452955Y111200D01*
X454153Y109639D01*
X453591Y108500D01*
X451500D01*
Y85500D01*
X474500D01*
Y108500D01*
X472409D01*
X471847Y109639D01*
X473045Y111200D01*
X474204Y113998D01*
X474599Y117000D01*
X474204Y120002D01*
X473045Y122800D01*
X471202Y125202D01*
X469686Y126365D01*
Y127635D01*
X471202Y128798D01*
X473045Y131200D01*
X474204Y133998D01*
X474432Y135730D01*
D02*
G37*
G36*
X849000Y62077D02*
X845863Y61768D01*
X842847Y60854D01*
X840068Y59368D01*
X837632Y57368D01*
X835632Y54932D01*
X834146Y52153D01*
X833232Y49137D01*
X832923Y46000D01*
X833232Y42863D01*
X834146Y39847D01*
X835632Y37068D01*
X837632Y34632D01*
X840068Y32632D01*
X842847Y31146D01*
X845863Y30231D01*
X849000Y29923D01*
X852137Y30231D01*
X855153Y31146D01*
X857932Y32632D01*
X860368Y34632D01*
X862368Y37068D01*
X863854Y39847D01*
X864769Y42863D01*
X865077Y46000D01*
X864769Y49137D01*
X863854Y52153D01*
X862368Y54932D01*
X860368Y57368D01*
X857932Y59368D01*
X855153Y60854D01*
X852137Y61768D01*
X849000Y62077D01*
D02*
G37*
G36*
X803000D02*
X799863Y61768D01*
X796847Y60854D01*
X794068Y59368D01*
X791631Y57368D01*
X789632Y54932D01*
X788146Y52153D01*
X787232Y49137D01*
X786923Y46000D01*
X787232Y42863D01*
X788146Y39847D01*
X789632Y37068D01*
X791631Y34632D01*
X794068Y32632D01*
X796847Y31146D01*
X799863Y30231D01*
X803000Y29923D01*
X806136Y30231D01*
X809153Y31146D01*
X811932Y32632D01*
X814368Y34632D01*
X816368Y37068D01*
X817854Y39847D01*
X818768Y42863D01*
X819077Y46000D01*
X818768Y49137D01*
X817854Y52153D01*
X816368Y54932D01*
X814368Y57368D01*
X811932Y59368D01*
X809153Y60854D01*
X806136Y61768D01*
X803000Y62077D01*
D02*
G37*
G36*
X463000Y188599D02*
X459998Y188204D01*
X457200Y187045D01*
X454798Y185202D01*
X452955Y182800D01*
X451796Y180002D01*
X451401Y177000D01*
X451796Y173998D01*
X452955Y171200D01*
X454798Y168798D01*
X456314Y167635D01*
Y166365D01*
X454798Y165202D01*
X452955Y162800D01*
X451796Y160002D01*
X451401Y157000D01*
X451796Y153998D01*
X452955Y151200D01*
X454798Y148798D01*
X456314Y147635D01*
Y146365D01*
X454798Y145202D01*
X452955Y142800D01*
X451796Y140002D01*
X451568Y138270D01*
X474432D01*
X474204Y140002D01*
X473045Y142800D01*
X471202Y145202D01*
X469686Y146365D01*
Y147635D01*
X471202Y148798D01*
X473045Y151200D01*
X474204Y153998D01*
X474599Y157000D01*
X474204Y160002D01*
X473045Y162800D01*
X471202Y165202D01*
X469686Y166365D01*
Y167635D01*
X471202Y168798D01*
X473045Y171200D01*
X474204Y173998D01*
X474599Y177000D01*
X474204Y180002D01*
X473045Y182800D01*
X471202Y185202D01*
X468800Y187045D01*
X466002Y188204D01*
X463000Y188599D01*
D02*
G37*
G36*
X227750Y293516D02*
X224226Y293052D01*
X220942Y291692D01*
X218122Y289528D01*
X215958Y286708D01*
X214597Y283424D01*
X214133Y279900D01*
X214597Y276376D01*
X215958Y273092D01*
X218122Y270272D01*
X220942Y268108D01*
X224226Y266747D01*
X227750Y266283D01*
X231274Y266747D01*
X234558Y268108D01*
X237378Y270272D01*
X239542Y273092D01*
X240903Y276376D01*
X241367Y279900D01*
X240903Y283424D01*
X239542Y286708D01*
X237378Y289528D01*
X234558Y291692D01*
X231274Y293052D01*
X227750Y293516D01*
D02*
G37*
G36*
X909400Y249517D02*
X905876Y249053D01*
X902592Y247692D01*
X899772Y245528D01*
X897608Y242708D01*
X897335Y242050D01*
X896065D01*
X895792Y242708D01*
X893628Y245528D01*
X890808Y247692D01*
X887524Y249053D01*
X884000Y249517D01*
X880476Y249053D01*
X877192Y247692D01*
X874372Y245528D01*
X872208Y242708D01*
X871935Y242050D01*
X870665D01*
X870392Y242708D01*
X868228Y245528D01*
X865408Y247692D01*
X862124Y249053D01*
X858600Y249517D01*
X855076Y249053D01*
X851792Y247692D01*
X848972Y245528D01*
X846808Y242708D01*
X845448Y239424D01*
X844984Y235900D01*
X845448Y232376D01*
X846808Y229092D01*
X848972Y226272D01*
X851792Y224108D01*
X855076Y222747D01*
X858600Y222284D01*
X862124Y222747D01*
X865408Y224108D01*
X868228Y226272D01*
X870392Y229092D01*
X870665Y229750D01*
X871935D01*
X872208Y229092D01*
X874372Y226272D01*
X877192Y224108D01*
X880476Y222747D01*
X884000Y222284D01*
X887524Y222747D01*
X890808Y224108D01*
X893628Y226272D01*
X895792Y229092D01*
X896065Y229750D01*
X897335D01*
X897608Y229092D01*
X899772Y226272D01*
X902592Y224108D01*
X905876Y222747D01*
X909400Y222284D01*
X912924Y222747D01*
X916208Y224108D01*
X919028Y226272D01*
X921192Y229092D01*
X922553Y232376D01*
X923017Y235900D01*
X922553Y239424D01*
X921192Y242708D01*
X919028Y245528D01*
X916208Y247692D01*
X912924Y249053D01*
X909400Y249517D01*
D02*
G37*
G36*
X710000Y183435D02*
X707429Y183097D01*
X705033Y182104D01*
X702975Y180525D01*
X701396Y178468D01*
X700404Y176071D01*
X700065Y173500D01*
X700298Y171729D01*
X651213Y122643D01*
X649000Y122935D01*
X646429Y122596D01*
X644032Y121604D01*
X641975Y120025D01*
X640396Y117967D01*
X639403Y115571D01*
X639065Y113000D01*
X639403Y110429D01*
X640396Y108032D01*
X641975Y105975D01*
X644032Y104396D01*
X646429Y103404D01*
X649000Y103065D01*
X651571Y103404D01*
X653967Y104396D01*
X656025Y105975D01*
X657604Y108032D01*
X658596Y110429D01*
X658935Y113000D01*
X658760Y114329D01*
X708229Y163798D01*
X710000Y163565D01*
X712571Y163904D01*
X714967Y164896D01*
X717025Y166475D01*
X718604Y168533D01*
X719596Y170929D01*
X719935Y173500D01*
X719596Y176071D01*
X718604Y178468D01*
X717025Y180525D01*
X714967Y182104D01*
X712571Y183097D01*
X710000Y183435D01*
D02*
G37*
G36*
X711000Y452066D02*
X707476Y451603D01*
X704192Y450242D01*
X701372Y448078D01*
X699208Y445258D01*
X698935Y444600D01*
X697665D01*
X697392Y445258D01*
X695228Y448078D01*
X692408Y450242D01*
X689124Y451603D01*
X685600Y452066D01*
X682076Y451603D01*
X678792Y450242D01*
X675972Y448078D01*
X673808Y445258D01*
X672448Y441974D01*
X671984Y438450D01*
X672448Y434926D01*
X673808Y431642D01*
X675972Y428822D01*
X678792Y426658D01*
X682076Y425298D01*
X685600Y424833D01*
X689124Y425298D01*
X692408Y426658D01*
X695228Y428822D01*
X697392Y431642D01*
X697665Y432300D01*
X698935D01*
X699208Y431642D01*
X701372Y428822D01*
X704192Y426658D01*
X707476Y425298D01*
X711000Y424833D01*
X714524Y425298D01*
X717808Y426658D01*
X720628Y428822D01*
X721697Y430215D01*
X722900Y429807D01*
Y424950D01*
X749900D01*
Y451950D01*
X722900D01*
Y447093D01*
X721697Y446685D01*
X720628Y448078D01*
X717808Y450242D01*
X714524Y451603D01*
X711000Y452066D01*
D02*
G37*
G36*
X681000Y648077D02*
X677863Y647768D01*
X674847Y646854D01*
X672068Y645368D01*
X669632Y643369D01*
X667632Y640932D01*
X666146Y638153D01*
X665231Y635137D01*
X664923Y632000D01*
X665231Y628863D01*
X666146Y625847D01*
X667632Y623068D01*
X669632Y620632D01*
X672068Y618632D01*
X674847Y617146D01*
X677863Y616231D01*
X681000Y615923D01*
X684137Y616231D01*
X687153Y617146D01*
X689932Y618632D01*
X692368Y620632D01*
X694368Y623068D01*
X695854Y625847D01*
X696768Y628863D01*
X697077Y632000D01*
X696768Y635137D01*
X695854Y638153D01*
X694368Y640932D01*
X692368Y643369D01*
X689932Y645368D01*
X687153Y646854D01*
X684137Y647768D01*
X681000Y648077D01*
D02*
G37*
G36*
X546000D02*
X542864Y647768D01*
X539847Y646854D01*
X537068Y645368D01*
X534632Y643369D01*
X532632Y640932D01*
X531146Y638153D01*
X530232Y635137D01*
X529923Y632000D01*
X530232Y628863D01*
X531146Y625847D01*
X532632Y623068D01*
X534632Y620632D01*
X537068Y618632D01*
X539847Y617146D01*
X542864Y616231D01*
X546000Y615923D01*
X549137Y616231D01*
X552153Y617146D01*
X554932Y618632D01*
X557369Y620632D01*
X559368Y623068D01*
X560854Y625847D01*
X561768Y628863D01*
X562077Y632000D01*
X561768Y635137D01*
X560854Y638153D01*
X559368Y640932D01*
X557369Y643369D01*
X554932Y645368D01*
X552153Y646854D01*
X549137Y647768D01*
X546000Y648077D01*
D02*
G37*
G36*
X415000D02*
X411864Y647768D01*
X408847Y646854D01*
X406068Y645368D01*
X403632Y643369D01*
X401632Y640932D01*
X400146Y638153D01*
X399231Y635137D01*
X398923Y632000D01*
X399231Y628863D01*
X400146Y625847D01*
X401632Y623068D01*
X403632Y620632D01*
X406068Y618632D01*
X408847Y617146D01*
X411864Y616231D01*
X415000Y615923D01*
X418137Y616231D01*
X421153Y617146D01*
X423932Y618632D01*
X426368Y620632D01*
X428368Y623068D01*
X429854Y625847D01*
X430769Y628863D01*
X431077Y632000D01*
X430769Y635137D01*
X429854Y638153D01*
X428368Y640932D01*
X426368Y643369D01*
X423932Y645368D01*
X421153Y646854D01*
X418137Y647768D01*
X415000Y648077D01*
D02*
G37*
G36*
X818000D02*
X814864Y647768D01*
X811847Y646854D01*
X809068Y645368D01*
X806632Y643369D01*
X804632Y640932D01*
X803146Y638153D01*
X802232Y635137D01*
X801923Y632000D01*
X802232Y628863D01*
X803146Y625847D01*
X804632Y623068D01*
X806632Y620632D01*
X809068Y618632D01*
X811847Y617146D01*
X814864Y616231D01*
X818000Y615923D01*
X821137Y616231D01*
X824153Y617146D01*
X826932Y618632D01*
X829369Y620632D01*
X831368Y623068D01*
X832854Y625847D01*
X833768Y628863D01*
X834077Y632000D01*
X833768Y635137D01*
X832854Y638153D01*
X831368Y640932D01*
X829369Y643369D01*
X826932Y645368D01*
X824153Y646854D01*
X821137Y647768D01*
X818000Y648077D01*
D02*
G37*
G36*
X221270Y638464D02*
Y621270D01*
X238464D01*
X238232Y623627D01*
X237174Y627114D01*
X235457Y630328D01*
X233145Y633145D01*
X230328Y635457D01*
X227114Y637174D01*
X223627Y638232D01*
X221270Y638464D01*
D02*
G37*
G36*
X218730D02*
X216373Y638232D01*
X212886Y637174D01*
X209672Y635457D01*
X206855Y633145D01*
X204543Y630328D01*
X202826Y627114D01*
X201768Y623627D01*
X201536Y621270D01*
X218730D01*
Y638464D01*
D02*
G37*
G36*
X939000Y648077D02*
X935863Y647768D01*
X932847Y646854D01*
X930068Y645368D01*
X927632Y643369D01*
X925632Y640932D01*
X924146Y638153D01*
X923232Y635137D01*
X922923Y632000D01*
X923232Y628863D01*
X924146Y625847D01*
X925632Y623068D01*
X927632Y620632D01*
X930068Y618632D01*
X932847Y617146D01*
X935863Y616231D01*
X939000Y615923D01*
X942137Y616231D01*
X945153Y617146D01*
X947932Y618632D01*
X950368Y620632D01*
X952368Y623068D01*
X953854Y625847D01*
X954769Y628863D01*
X955077Y632000D01*
X954769Y635137D01*
X953854Y638153D01*
X952368Y640932D01*
X950368Y643369D01*
X947932Y645368D01*
X945153Y646854D01*
X942137Y647768D01*
X939000Y648077D01*
D02*
G37*
G36*
X238464Y618730D02*
X221270D01*
Y601536D01*
X223627Y601768D01*
X227114Y602826D01*
X230328Y604543D01*
X233145Y606855D01*
X235457Y609672D01*
X237174Y612886D01*
X238232Y616373D01*
X238464Y618730D01*
D02*
G37*
G36*
X604000Y631077D02*
X600863Y630769D01*
X597847Y629854D01*
X595068Y628368D01*
X592632Y626368D01*
X590632Y623932D01*
X589146Y621153D01*
X588232Y618137D01*
X587923Y615000D01*
X588232Y611864D01*
X589146Y608847D01*
X590632Y606068D01*
X592632Y603632D01*
X595068Y601632D01*
X597847Y600146D01*
X600863Y599231D01*
X604000Y598923D01*
X607137Y599231D01*
X610153Y600146D01*
X612932Y601632D01*
X615368Y603632D01*
X617368Y606068D01*
X618854Y608847D01*
X619768Y611864D01*
X620077Y615000D01*
X619768Y618137D01*
X618854Y621153D01*
X617368Y623932D01*
X615368Y626368D01*
X612932Y628368D01*
X610153Y629854D01*
X607137Y630769D01*
X604000Y631077D01*
D02*
G37*
G36*
X468000D02*
X464864Y630769D01*
X461847Y629854D01*
X459068Y628368D01*
X456632Y626368D01*
X454632Y623932D01*
X453146Y621153D01*
X452231Y618137D01*
X451923Y615000D01*
X452231Y611864D01*
X453146Y608847D01*
X454632Y606068D01*
X456632Y603632D01*
X459068Y601632D01*
X461847Y600146D01*
X464864Y599231D01*
X468000Y598923D01*
X471137Y599231D01*
X474153Y600146D01*
X476932Y601632D01*
X479369Y603632D01*
X481368Y606068D01*
X482854Y608847D01*
X483769Y611864D01*
X484077Y615000D01*
X483769Y618137D01*
X482854Y621153D01*
X481368Y623932D01*
X479369Y626368D01*
X476932Y628368D01*
X474153Y629854D01*
X471137Y630769D01*
X468000Y631077D01*
D02*
G37*
G36*
X845790Y452066D02*
X842266Y451603D01*
X838982Y450242D01*
X836162Y448078D01*
X833998Y445258D01*
X833725Y444600D01*
X832455D01*
X832182Y445258D01*
X830018Y448078D01*
X827198Y450242D01*
X823914Y451603D01*
X820390Y452066D01*
X816866Y451603D01*
X813582Y450242D01*
X810762Y448078D01*
X808598Y445258D01*
X807238Y441974D01*
X806774Y438450D01*
X807238Y434926D01*
X808598Y431642D01*
X810762Y428822D01*
X813582Y426658D01*
X816866Y425298D01*
X820390Y424833D01*
X823914Y425298D01*
X827198Y426658D01*
X830018Y428822D01*
X832182Y431642D01*
X832455Y432300D01*
X833725D01*
X833998Y431642D01*
X836162Y428822D01*
X838982Y426658D01*
X842266Y425298D01*
X845790Y424833D01*
X849314Y425298D01*
X852598Y426658D01*
X855418Y428822D01*
X856487Y430215D01*
X857690Y429807D01*
Y424950D01*
X884690D01*
Y451950D01*
X857690D01*
Y447093D01*
X856487Y446685D01*
X855418Y448078D01*
X852598Y450242D01*
X849314Y451603D01*
X845790Y452066D01*
D02*
G37*
G36*
X738000Y631077D02*
X734864Y630769D01*
X731848Y629854D01*
X729068Y628368D01*
X726632Y626368D01*
X724632Y623932D01*
X723146Y621153D01*
X722232Y618137D01*
X721923Y615000D01*
X722232Y611864D01*
X723146Y608847D01*
X724632Y606068D01*
X726632Y603632D01*
X729068Y601632D01*
X731848Y600146D01*
X734864Y599231D01*
X738000Y598923D01*
X741137Y599231D01*
X744153Y600146D01*
X746932Y601632D01*
X749369Y603632D01*
X751368Y606068D01*
X752854Y608847D01*
X753768Y611864D01*
X754077Y615000D01*
X753768Y618137D01*
X752854Y621153D01*
X751368Y623932D01*
X749369Y626368D01*
X746932Y628368D01*
X744153Y629854D01*
X741137Y630769D01*
X738000Y631077D01*
D02*
G37*
G36*
X218730Y618730D02*
X201536D01*
X201768Y616373D01*
X202826Y612886D01*
X204543Y609672D01*
X206855Y606855D01*
X209672Y604543D01*
X212886Y602826D01*
X216373Y601768D01*
X218730Y601536D01*
Y618730D01*
D02*
G37*
G36*
X171000Y638590D02*
X167373Y638232D01*
X163886Y637174D01*
X160672Y635457D01*
X157855Y633145D01*
X155543Y630328D01*
X153826Y627114D01*
X152768Y623627D01*
X152410Y620000D01*
X152768Y616373D01*
X153826Y612886D01*
X155543Y609672D01*
X157855Y606855D01*
X160672Y604543D01*
X163886Y602826D01*
X167373Y601768D01*
X171000Y601410D01*
X174627Y601768D01*
X178114Y602826D01*
X181328Y604543D01*
X184145Y606855D01*
X186457Y609672D01*
X188174Y612886D01*
X189232Y616373D01*
X189590Y620000D01*
X189232Y623627D01*
X188174Y627114D01*
X186457Y630328D01*
X184145Y633145D01*
X181328Y635457D01*
X178114Y637174D01*
X174627Y638232D01*
X171000Y638590D01*
D02*
G37*
G36*
X873000Y631077D02*
X869864Y630769D01*
X866847Y629854D01*
X864068Y628368D01*
X861632Y626368D01*
X859632Y623932D01*
X858146Y621153D01*
X857232Y618137D01*
X856923Y615000D01*
X857232Y611864D01*
X858146Y608847D01*
X859632Y606068D01*
X861632Y603632D01*
X864068Y601632D01*
X866847Y600146D01*
X869864Y599231D01*
X873000Y598923D01*
X876137Y599231D01*
X879153Y600146D01*
X881932Y601632D01*
X884369Y603632D01*
X886368Y606068D01*
X887854Y608847D01*
X888768Y611864D01*
X889077Y615000D01*
X888768Y618137D01*
X887854Y621153D01*
X886368Y623932D01*
X884369Y626368D01*
X881932Y628368D01*
X879153Y629854D01*
X876137Y630769D01*
X873000Y631077D01*
D02*
G37*
%LPD*%
D29*
X649000Y113000D02*
X649500D01*
X710000Y173500D01*
D30*
X1005000Y675000D02*
D03*
X10000D02*
D03*
Y10000D02*
D03*
X1005000D02*
D03*
D31*
X849000Y46000D02*
D03*
X803000D02*
D03*
X604000Y615000D02*
D03*
X738000D02*
D03*
X873000D02*
D03*
X939000Y632000D02*
D03*
X818000D02*
D03*
X681000D02*
D03*
X546000D02*
D03*
X468000Y615000D02*
D03*
X415000Y632000D02*
D03*
D32*
X171000Y620000D02*
D03*
X220000D02*
D03*
D33*
X302750Y279900D02*
D03*
X227750D02*
D03*
X685600Y362250D02*
D03*
X711000D02*
D03*
X736400D02*
D03*
X685600Y438450D02*
D03*
X711000D02*
D03*
X820390Y362250D02*
D03*
X845790D02*
D03*
X871190D02*
D03*
X820390Y438450D02*
D03*
X845790D02*
D03*
X550810Y362250D02*
D03*
X576210D02*
D03*
X601610D02*
D03*
X550810Y438450D02*
D03*
X576210D02*
D03*
X416020Y362250D02*
D03*
X441420D02*
D03*
X466820D02*
D03*
X416020Y438450D02*
D03*
X441420D02*
D03*
X858600Y235900D02*
D03*
X884000D02*
D03*
X909400D02*
D03*
X858600Y312100D02*
D03*
X884000D02*
D03*
D34*
X463000Y97000D02*
D03*
D35*
Y117000D02*
D03*
Y177000D02*
D03*
Y157000D02*
D03*
Y137000D02*
D03*
D36*
X736400Y438450D02*
D03*
X871190D02*
D03*
X601610D02*
D03*
X466820D02*
D03*
X909400Y312100D02*
D03*
D37*
X364000Y147000D02*
D03*
X363000Y182000D02*
D03*
X362000Y217000D02*
D03*
X625000Y61000D02*
D03*
X497000Y203000D02*
D03*
X468000Y227000D02*
D03*
X439000Y253000D02*
D03*
X410000Y278000D02*
D03*
X777000Y256000D02*
D03*
X809000Y338000D02*
D03*
X730000Y328000D02*
D03*
X1000000Y63000D02*
D03*
Y83000D02*
D03*
Y103000D02*
D03*
Y123000D02*
D03*
Y143000D02*
D03*
Y163000D02*
D03*
Y183000D02*
D03*
Y203000D02*
D03*
Y223000D02*
D03*
Y243000D02*
D03*
Y263000D02*
D03*
Y283000D02*
D03*
Y303000D02*
D03*
Y323000D02*
D03*
Y343000D02*
D03*
Y363000D02*
D03*
Y383000D02*
D03*
Y403000D02*
D03*
Y423000D02*
D03*
Y443000D02*
D03*
Y463000D02*
D03*
Y483000D02*
D03*
Y503000D02*
D03*
Y523000D02*
D03*
Y543000D02*
D03*
Y563000D02*
D03*
Y583000D02*
D03*
Y603000D02*
D03*
Y623000D02*
D03*
X13000D02*
D03*
Y603000D02*
D03*
Y583000D02*
D03*
Y563000D02*
D03*
Y543000D02*
D03*
Y523000D02*
D03*
Y503000D02*
D03*
Y483000D02*
D03*
Y463000D02*
D03*
Y443000D02*
D03*
Y423000D02*
D03*
Y403000D02*
D03*
Y383000D02*
D03*
Y363000D02*
D03*
Y343000D02*
D03*
Y323000D02*
D03*
Y303000D02*
D03*
Y283000D02*
D03*
Y263000D02*
D03*
Y243000D02*
D03*
Y223000D02*
D03*
Y203000D02*
D03*
Y183000D02*
D03*
Y163000D02*
D03*
Y143000D02*
D03*
Y123000D02*
D03*
Y103000D02*
D03*
Y83000D02*
D03*
Y63000D02*
D03*
X64000Y11000D02*
D03*
X84000D02*
D03*
X104000D02*
D03*
X124000D02*
D03*
X144000D02*
D03*
X164000D02*
D03*
X184000D02*
D03*
X204000D02*
D03*
X224000D02*
D03*
X244000D02*
D03*
X264000D02*
D03*
X284000D02*
D03*
X304000D02*
D03*
X324000D02*
D03*
X344000D02*
D03*
X364000D02*
D03*
X384000D02*
D03*
X404000D02*
D03*
X424000D02*
D03*
X444000D02*
D03*
X464000D02*
D03*
X484000D02*
D03*
X504000D02*
D03*
X524000D02*
D03*
X544000D02*
D03*
X564000D02*
D03*
X584000D02*
D03*
X604000D02*
D03*
X624000D02*
D03*
X644000D02*
D03*
X664000D02*
D03*
X684000D02*
D03*
X704000D02*
D03*
X724000D02*
D03*
X744000D02*
D03*
X764000D02*
D03*
X950000Y673000D02*
D03*
X930000D02*
D03*
X910000D02*
D03*
X890000D02*
D03*
X870000D02*
D03*
X850000D02*
D03*
X830000D02*
D03*
X810000D02*
D03*
X790000D02*
D03*
X770000D02*
D03*
X750000D02*
D03*
X730000D02*
D03*
X710000D02*
D03*
X690000D02*
D03*
X670000D02*
D03*
X650000D02*
D03*
X630000D02*
D03*
X610000D02*
D03*
X590000D02*
D03*
X570000D02*
D03*
X550000D02*
D03*
X530000D02*
D03*
X510000D02*
D03*
X490000D02*
D03*
X470000D02*
D03*
X450000D02*
D03*
X430000D02*
D03*
X410000D02*
D03*
X390000D02*
D03*
X370000D02*
D03*
X350000D02*
D03*
X330000D02*
D03*
X310000D02*
D03*
X290000D02*
D03*
X270000D02*
D03*
X250000D02*
D03*
X230000D02*
D03*
X210000D02*
D03*
X190000D02*
D03*
X170000D02*
D03*
X150000D02*
D03*
X130000D02*
D03*
X110000D02*
D03*
X90000D02*
D03*
X70000D02*
D03*
X463000Y329000D02*
D03*
X483000Y313000D02*
D03*
X501000Y294000D02*
D03*
X512000Y270000D02*
D03*
X594000Y332000D02*
D03*
X626000D02*
D03*
X638000Y360000D02*
D03*
X656000Y229000D02*
D03*
X695000D02*
D03*
X683000Y206000D02*
D03*
X791000Y204000D02*
D03*
X830000D02*
D03*
X869000D02*
D03*
X850000D02*
D03*
X811000D02*
D03*
X279000Y578000D02*
D03*
X312000Y579000D02*
D03*
X342000D02*
D03*
X367000D02*
D03*
X368000Y545000D02*
D03*
X367000Y518000D02*
D03*
X368000Y490000D02*
D03*
X500000Y405000D02*
D03*
X637000Y404000D02*
D03*
X771000Y407000D02*
D03*
X739000Y48000D02*
D03*
X755000D02*
D03*
X816000Y115000D02*
D03*
X588000D02*
D03*
X542000Y113000D02*
D03*
X416000Y537000D02*
D03*
X463000D02*
D03*
X557000D02*
D03*
X605000D02*
D03*
X691000D02*
D03*
X737000D02*
D03*
X828000D02*
D03*
X872000D02*
D03*
X864000Y394000D02*
D03*
X884000Y283000D02*
D03*
X913000Y266000D02*
D03*
X241000Y504000D02*
D03*
Y487000D02*
D03*
Y470000D02*
D03*
Y453000D02*
D03*
Y436000D02*
D03*
X258000Y504000D02*
D03*
Y487000D02*
D03*
Y470000D02*
D03*
Y453000D02*
D03*
Y436000D02*
D03*
X275000Y504000D02*
D03*
Y487000D02*
D03*
Y470000D02*
D03*
Y453000D02*
D03*
Y436000D02*
D03*
X292000Y504000D02*
D03*
Y487000D02*
D03*
Y470000D02*
D03*
Y453000D02*
D03*
Y436000D02*
D03*
X309000Y504000D02*
D03*
Y487000D02*
D03*
Y470000D02*
D03*
Y453000D02*
D03*
Y436000D02*
D03*
X413000Y405000D02*
D03*
X468000D02*
D03*
X601000Y404000D02*
D03*
X547000D02*
D03*
X737000D02*
D03*
X683000D02*
D03*
X845000Y402000D02*
D03*
X880000Y387000D02*
D03*
X770000Y366000D02*
D03*
X669000Y274000D02*
D03*
X703000D02*
D03*
X739000D02*
D03*
X771000Y204000D02*
D03*
X756000Y195000D02*
D03*
X743000Y166000D02*
D03*
X742000Y149000D02*
D03*
Y133000D02*
D03*
X771000Y48000D02*
D03*
X731000Y64000D02*
D03*
Y82000D02*
D03*
X744000Y182000D02*
D03*
X887000Y204000D02*
D03*
X905000D02*
D03*
X924000D02*
D03*
X588000Y158000D02*
D03*
X543000Y157000D02*
D03*
X841000Y101000D02*
D03*
D38*
X710000Y173500D02*
D03*
X649000Y113000D02*
D03*
M02*
