%FSLAX44Y44*%
%MOMM*%
G71*
G01*
G75*
G04 Layer_Color=8388736*
%ADD10R,1.5000X1.0000*%
%ADD11R,0.9000X1.0000*%
%ADD12R,1.0000X0.9000*%
%ADD13R,0.6000X1.3000*%
%ADD14R,2.2000X2.0000*%
%ADD15R,3.0000X4.0000*%
%ADD16R,10.5000X10.4000*%
%ADD17R,1.1000X3.5000*%
%ADD18R,3.0000X5.0000*%
%ADD19R,2.5000X5.7000*%
%ADD20R,1.6000X3.0000*%
%ADD21R,5.7000X2.5000*%
%ADD22R,1.6000X0.5000*%
%ADD23R,0.5000X1.6000*%
%ADD24R,1.0000X1.5000*%
%ADD25R,1.8000X2.0000*%
%ADD26C,1.0000*%
%ADD27C,0.5000*%
%ADD28C,0.6000*%
%ADD29C,0.4000*%
%ADD30C,7.0000*%
%ADD31C,2.5000*%
%ADD32C,3.0000*%
%ADD33C,2.0000*%
%ADD34R,1.6000X1.6000*%
%ADD35C,1.6000*%
%ADD36R,2.0000X2.0000*%
%ADD37C,1.2000*%
%ADD38C,1.2700*%
%ADD39C,0.2000*%
%ADD40C,0.2500*%
%ADD41C,0.1000*%
%ADD42C,0.2540*%
%ADD43R,1.7032X1.2032*%
%ADD44R,1.1032X1.2032*%
%ADD45R,1.2032X1.1032*%
%ADD46R,0.8032X1.5032*%
%ADD47R,2.4032X2.2032*%
%ADD48R,3.2032X4.2032*%
%ADD49R,10.7032X10.6032*%
%ADD50R,1.3032X3.7032*%
%ADD51R,3.2032X5.2032*%
%ADD52R,2.7032X5.9032*%
%ADD53R,1.8032X3.2032*%
%ADD54R,5.9032X2.7032*%
%ADD55R,1.8032X0.7032*%
%ADD56R,0.7032X1.8032*%
%ADD57R,1.2032X1.7032*%
%ADD58R,2.0032X2.2032*%
%ADD59C,7.2032*%
%ADD60C,2.7032*%
%ADD61C,3.2032*%
%ADD62C,2.2032*%
%ADD63R,1.8032X1.8032*%
%ADD64C,1.8032*%
%ADD65R,2.2032X2.2032*%
%ADD66C,1.4732*%
D43*
X901670Y546070D02*
D03*
Y566070D02*
D03*
X767000Y510510D02*
D03*
Y530510D02*
D03*
X901670Y510510D02*
D03*
Y530510D02*
D03*
X767000Y566070D02*
D03*
Y546070D02*
D03*
X767000Y603000D02*
D03*
Y583000D02*
D03*
X902000Y603000D02*
D03*
Y583000D02*
D03*
X634000Y510510D02*
D03*
Y530510D02*
D03*
X499000Y510510D02*
D03*
Y530510D02*
D03*
X634000Y566070D02*
D03*
Y546070D02*
D03*
X499000Y566070D02*
D03*
Y546070D02*
D03*
X634000Y603000D02*
D03*
Y583000D02*
D03*
X499000Y603000D02*
D03*
Y583000D02*
D03*
X707000Y68500D02*
D03*
Y47500D02*
D03*
X662000Y68500D02*
D03*
Y47500D02*
D03*
D44*
X839500Y159000D02*
D03*
X856500D02*
D03*
X805500D02*
D03*
X822500D02*
D03*
X238190Y345940D02*
D03*
X221190D02*
D03*
X292500Y346000D02*
D03*
X309500D02*
D03*
X585500Y57000D02*
D03*
X568500D02*
D03*
X668500Y308000D02*
D03*
X685500D02*
D03*
X771500Y308000D02*
D03*
X788500D02*
D03*
X685500Y340000D02*
D03*
X702500D02*
D03*
X788500D02*
D03*
X771500D02*
D03*
X702500Y324000D02*
D03*
X685500D02*
D03*
X771500Y325000D02*
D03*
X788500D02*
D03*
X534500Y308000D02*
D03*
X551500D02*
D03*
X432500D02*
D03*
X415500D02*
D03*
X550500Y340000D02*
D03*
X567500D02*
D03*
X415500D02*
D03*
X432500D02*
D03*
X567500Y324000D02*
D03*
X550500D02*
D03*
X432500D02*
D03*
X415500D02*
D03*
X771500Y235000D02*
D03*
X788500D02*
D03*
D45*
X875000Y76500D02*
D03*
Y93500D02*
D03*
Y127500D02*
D03*
Y110500D02*
D03*
X791000Y158500D02*
D03*
Y175500D02*
D03*
X589000Y226500D02*
D03*
Y243500D02*
D03*
X436000Y117500D02*
D03*
Y100500D02*
D03*
X419000Y117500D02*
D03*
Y100500D02*
D03*
X692000Y106500D02*
D03*
Y89500D02*
D03*
X674000Y106500D02*
D03*
Y89500D02*
D03*
X822000Y235500D02*
D03*
Y252500D02*
D03*
X804500D02*
D03*
Y235500D02*
D03*
D46*
X765500Y79250D02*
D03*
X778250D02*
D03*
X790950D02*
D03*
X803650D02*
D03*
X816350D02*
D03*
X829050D02*
D03*
X841750D02*
D03*
X854450D02*
D03*
X765550Y136750D02*
D03*
X778250D02*
D03*
X790950D02*
D03*
X803650D02*
D03*
X816350D02*
D03*
X829050D02*
D03*
X841750D02*
D03*
X854450D02*
D03*
D47*
X905000Y112000D02*
D03*
Y82000D02*
D03*
X617000Y229000D02*
D03*
Y259000D02*
D03*
D48*
X171000Y505000D02*
D03*
X95000D02*
D03*
X92170Y257740D02*
D03*
X168170D02*
D03*
D49*
X272870Y473650D02*
D03*
D50*
X306870Y378150D02*
D03*
X289870D02*
D03*
X272870D02*
D03*
X255870D02*
D03*
X238870D02*
D03*
D51*
X310250Y279900D02*
D03*
X220250D02*
D03*
D52*
X130170Y325580D02*
D03*
Y423580D02*
D03*
D53*
X217000Y570000D02*
D03*
X169000D02*
D03*
D54*
X144000Y145000D02*
D03*
X242000D02*
D03*
D55*
X626000Y97000D02*
D03*
Y105000D02*
D03*
Y113000D02*
D03*
Y121000D02*
D03*
Y129000D02*
D03*
Y137000D02*
D03*
Y145000D02*
D03*
Y153000D02*
D03*
Y161000D02*
D03*
Y169000D02*
D03*
Y177000D02*
D03*
X516000Y97000D02*
D03*
Y105000D02*
D03*
Y113000D02*
D03*
Y121000D02*
D03*
Y129000D02*
D03*
Y137000D02*
D03*
Y145000D02*
D03*
Y153000D02*
D03*
Y161000D02*
D03*
Y169000D02*
D03*
Y177000D02*
D03*
D56*
X531000Y82000D02*
D03*
X539000D02*
D03*
X547000D02*
D03*
X555000D02*
D03*
X563000D02*
D03*
X571000D02*
D03*
X579000D02*
D03*
X587000D02*
D03*
X595000D02*
D03*
X603000D02*
D03*
X611000D02*
D03*
X531000Y192000D02*
D03*
X539000D02*
D03*
X547000D02*
D03*
X555000D02*
D03*
X563000D02*
D03*
X571000D02*
D03*
X579000D02*
D03*
X587000D02*
D03*
X595000D02*
D03*
X603000D02*
D03*
X611000D02*
D03*
D57*
X668000Y467000D02*
D03*
X688000D02*
D03*
X803000Y466000D02*
D03*
X823000D02*
D03*
X766000Y467000D02*
D03*
X746000D02*
D03*
X902000Y466000D02*
D03*
X882000D02*
D03*
X706000Y467000D02*
D03*
X726000D02*
D03*
X842000Y466000D02*
D03*
X862000D02*
D03*
X701000Y607000D02*
D03*
X681000D02*
D03*
X839000D02*
D03*
X819000D02*
D03*
X533000Y467000D02*
D03*
X553000D02*
D03*
X398000D02*
D03*
X418000D02*
D03*
X634000D02*
D03*
X614000D02*
D03*
X499000D02*
D03*
X479000D02*
D03*
X573000D02*
D03*
X593000D02*
D03*
X439000D02*
D03*
X459000D02*
D03*
X566000Y607000D02*
D03*
X546000D02*
D03*
X395000Y606000D02*
D03*
X415000D02*
D03*
X933000Y350000D02*
D03*
X913000D02*
D03*
D58*
X684500Y582510D02*
D03*
X737500D02*
D03*
X684500Y492510D02*
D03*
X737500D02*
D03*
X819290Y582510D02*
D03*
X872290D02*
D03*
X819290Y492510D02*
D03*
X872290D02*
D03*
X549710Y582510D02*
D03*
X602710D02*
D03*
X549710Y492510D02*
D03*
X602710D02*
D03*
X414920Y582510D02*
D03*
X467920D02*
D03*
X414920Y492510D02*
D03*
X467920D02*
D03*
D59*
X1005000Y675000D02*
D03*
X10000D02*
D03*
Y10000D02*
D03*
X1005000D02*
D03*
D60*
X849000Y46000D02*
D03*
X803000D02*
D03*
X604000Y615000D02*
D03*
X738000D02*
D03*
X873000D02*
D03*
X939000Y632000D02*
D03*
X818000D02*
D03*
X681000D02*
D03*
X546000D02*
D03*
X468000Y615000D02*
D03*
X415000Y632000D02*
D03*
D61*
X171000Y620000D02*
D03*
X220000D02*
D03*
D62*
X302750Y279900D02*
D03*
X227750D02*
D03*
X685600Y362250D02*
D03*
X711000D02*
D03*
X736400D02*
D03*
X685600Y438450D02*
D03*
X711000D02*
D03*
X820390Y362250D02*
D03*
X845790D02*
D03*
X871190D02*
D03*
X820390Y438450D02*
D03*
X845790D02*
D03*
X550810Y362250D02*
D03*
X576210D02*
D03*
X601610D02*
D03*
X550810Y438450D02*
D03*
X576210D02*
D03*
X416020Y362250D02*
D03*
X441420D02*
D03*
X466820D02*
D03*
X416020Y438450D02*
D03*
X441420D02*
D03*
X858600Y235900D02*
D03*
X884000D02*
D03*
X909400D02*
D03*
X858600Y312100D02*
D03*
X884000D02*
D03*
D63*
X463000Y97000D02*
D03*
D64*
Y117000D02*
D03*
Y177000D02*
D03*
Y157000D02*
D03*
Y137000D02*
D03*
D65*
X736400Y438450D02*
D03*
X871190D02*
D03*
X601610D02*
D03*
X466820D02*
D03*
X909400Y312100D02*
D03*
D66*
X710000Y173500D02*
D03*
X649000Y113000D02*
D03*
M02*
