%FSLAX44Y44*%
%MOMM*%
G71*
G01*
G75*
G04 Layer_Color=8421504*
%ADD10R,1.5000X1.0000*%
%ADD11R,0.9000X1.0000*%
%ADD12R,1.0000X0.9000*%
%ADD13R,0.6000X1.3000*%
%ADD14R,2.2000X2.0000*%
%ADD15R,3.0000X4.0000*%
%ADD16R,10.5000X10.4000*%
%ADD17R,1.1000X3.5000*%
%ADD18R,3.0000X5.0000*%
%ADD19R,2.5000X5.7000*%
%ADD20R,1.6000X3.0000*%
%ADD21R,5.7000X2.5000*%
%ADD22R,1.6000X0.5000*%
%ADD23R,0.5000X1.6000*%
%ADD24R,1.0000X1.5000*%
%ADD25R,1.8000X2.0000*%
%ADD26C,1.0000*%
%ADD27C,0.5000*%
%ADD28C,0.6000*%
%ADD29C,0.4000*%
%ADD30C,7.0000*%
%ADD31C,2.5000*%
%ADD32C,3.0000*%
%ADD33C,2.0000*%
%ADD34R,1.6000X1.6000*%
%ADD35C,1.6000*%
%ADD36R,2.0000X2.0000*%
%ADD37C,1.2000*%
%ADD38C,1.2700*%
%ADD39C,0.2000*%
%ADD40C,0.2500*%
%ADD41C,0.1000*%
%ADD42C,0.2540*%
D10*
X901670Y546070D02*
D03*
Y566070D02*
D03*
X767000Y510510D02*
D03*
Y530510D02*
D03*
X901670Y510510D02*
D03*
Y530510D02*
D03*
X767000Y566070D02*
D03*
Y546070D02*
D03*
X767000Y603000D02*
D03*
Y583000D02*
D03*
X902000Y603000D02*
D03*
Y583000D02*
D03*
X634000Y510510D02*
D03*
Y530510D02*
D03*
X499000Y510510D02*
D03*
Y530510D02*
D03*
X634000Y566070D02*
D03*
Y546070D02*
D03*
X499000Y566070D02*
D03*
Y546070D02*
D03*
X634000Y603000D02*
D03*
Y583000D02*
D03*
X499000Y603000D02*
D03*
Y583000D02*
D03*
X707000Y68500D02*
D03*
Y47500D02*
D03*
X662000Y68500D02*
D03*
Y47500D02*
D03*
D11*
X839500Y159000D02*
D03*
X856500D02*
D03*
X805500D02*
D03*
X822500D02*
D03*
X238190Y345940D02*
D03*
X221190D02*
D03*
X292500Y346000D02*
D03*
X309500D02*
D03*
X585500Y57000D02*
D03*
X568500D02*
D03*
X668500Y308000D02*
D03*
X685500D02*
D03*
X771500Y308000D02*
D03*
X788500D02*
D03*
X685500Y340000D02*
D03*
X702500D02*
D03*
X788500D02*
D03*
X771500D02*
D03*
X702500Y324000D02*
D03*
X685500D02*
D03*
X771500Y325000D02*
D03*
X788500D02*
D03*
X534500Y308000D02*
D03*
X551500D02*
D03*
X432500D02*
D03*
X415500D02*
D03*
X550500Y340000D02*
D03*
X567500D02*
D03*
X415500D02*
D03*
X432500D02*
D03*
X567500Y324000D02*
D03*
X550500D02*
D03*
X432500D02*
D03*
X415500D02*
D03*
X771500Y235000D02*
D03*
X788500D02*
D03*
D12*
X875000Y76500D02*
D03*
Y93500D02*
D03*
Y127500D02*
D03*
Y110500D02*
D03*
X791000Y158500D02*
D03*
Y175500D02*
D03*
X589000Y226500D02*
D03*
Y243500D02*
D03*
X436000Y117500D02*
D03*
Y100500D02*
D03*
X419000Y117500D02*
D03*
Y100500D02*
D03*
X692000Y106500D02*
D03*
Y89500D02*
D03*
X674000Y106500D02*
D03*
Y89500D02*
D03*
X822000Y235500D02*
D03*
Y252500D02*
D03*
X804500D02*
D03*
Y235500D02*
D03*
D13*
X765500Y79250D02*
D03*
X778250D02*
D03*
X790950D02*
D03*
X803650D02*
D03*
X816350D02*
D03*
X829050D02*
D03*
X841750D02*
D03*
X854450D02*
D03*
X765550Y136750D02*
D03*
X778250D02*
D03*
X790950D02*
D03*
X803650D02*
D03*
X816350D02*
D03*
X829050D02*
D03*
X841750D02*
D03*
X854450D02*
D03*
D14*
X905000Y112000D02*
D03*
Y82000D02*
D03*
X617000Y229000D02*
D03*
Y259000D02*
D03*
D15*
X171000Y505000D02*
D03*
X95000D02*
D03*
X92170Y257740D02*
D03*
X168170D02*
D03*
D16*
X272870Y473650D02*
D03*
D17*
X306870Y378150D02*
D03*
X289870D02*
D03*
X272870D02*
D03*
X255870D02*
D03*
X238870D02*
D03*
D18*
X310250Y279900D02*
D03*
X220250D02*
D03*
D19*
X130170Y325580D02*
D03*
Y423580D02*
D03*
D20*
X217000Y570000D02*
D03*
X169000D02*
D03*
D21*
X144000Y145000D02*
D03*
X242000D02*
D03*
D22*
X626000Y97000D02*
D03*
Y105000D02*
D03*
Y113000D02*
D03*
Y121000D02*
D03*
Y129000D02*
D03*
Y137000D02*
D03*
Y145000D02*
D03*
Y153000D02*
D03*
Y161000D02*
D03*
Y169000D02*
D03*
Y177000D02*
D03*
X516000Y97000D02*
D03*
Y105000D02*
D03*
Y113000D02*
D03*
Y121000D02*
D03*
Y129000D02*
D03*
Y137000D02*
D03*
Y145000D02*
D03*
Y153000D02*
D03*
Y161000D02*
D03*
Y169000D02*
D03*
Y177000D02*
D03*
D23*
X531000Y82000D02*
D03*
X539000D02*
D03*
X547000D02*
D03*
X555000D02*
D03*
X563000D02*
D03*
X571000D02*
D03*
X579000D02*
D03*
X587000D02*
D03*
X595000D02*
D03*
X603000D02*
D03*
X611000D02*
D03*
X531000Y192000D02*
D03*
X539000D02*
D03*
X547000D02*
D03*
X555000D02*
D03*
X563000D02*
D03*
X571000D02*
D03*
X579000D02*
D03*
X587000D02*
D03*
X595000D02*
D03*
X603000D02*
D03*
X611000D02*
D03*
D24*
X668000Y467000D02*
D03*
X688000D02*
D03*
X803000Y466000D02*
D03*
X823000D02*
D03*
X766000Y467000D02*
D03*
X746000D02*
D03*
X902000Y466000D02*
D03*
X882000D02*
D03*
X706000Y467000D02*
D03*
X726000D02*
D03*
X842000Y466000D02*
D03*
X862000D02*
D03*
X701000Y607000D02*
D03*
X681000D02*
D03*
X839000D02*
D03*
X819000D02*
D03*
X533000Y467000D02*
D03*
X553000D02*
D03*
X398000D02*
D03*
X418000D02*
D03*
X634000D02*
D03*
X614000D02*
D03*
X499000D02*
D03*
X479000D02*
D03*
X573000D02*
D03*
X593000D02*
D03*
X439000D02*
D03*
X459000D02*
D03*
X566000Y607000D02*
D03*
X546000D02*
D03*
X395000Y606000D02*
D03*
X415000D02*
D03*
X933000Y350000D02*
D03*
X913000D02*
D03*
D25*
X684500Y582510D02*
D03*
X737500D02*
D03*
X684500Y492510D02*
D03*
X737500D02*
D03*
X819290Y582510D02*
D03*
X872290D02*
D03*
X819290Y492510D02*
D03*
X872290D02*
D03*
X549710Y582510D02*
D03*
X602710D02*
D03*
X549710Y492510D02*
D03*
X602710D02*
D03*
X414920Y582510D02*
D03*
X467920D02*
D03*
X414920Y492510D02*
D03*
X467920D02*
D03*
M02*
