M48
;Layer_Color=9474304
;FILE_FORMAT=4:4
METRIC,LZ
;TYPE=PLATED
T1F00S00C0.7000
T2F00S00C0.7112
T3F00S00C0.8000
T4F00S00C0.9000
T5F00S00C1.0000
T6F00S00C1.5000
T7F00S00C8.0000
%
T01
X00524Y00011
X00544
X00564
X00584
X00604
X00624
X00644
X00664
X00684
X00704
X00724
X00744
X00764
X00504
X00484
X00464
X00444
X00424
X00404
X00384
X00364
X00344
X00324
X00304
X00284
X00264
X00244
X00224
X00204
X00184
X00164
X00144
X00124
X00104
X00084
X00064
X00013Y00063
Y00083
Y00103
Y00123
Y00143
Y00163
Y00183
Y00203
Y00223
Y00243
Y00263
Y00283
Y00303
Y00323
Y00343
Y00363
Y00383
Y00403
Y00423
X00241Y00436
X00258
X00275
X00292
X00309
X00413Y00405
X00468
X005
X00483Y00313
X00463Y00329
X00501Y00294
X00497Y00203
X00468Y00227
X00439Y00253
X0041Y00278
X00362Y00217
X00363Y00182
X00364Y00147
X00543Y00157
X00542Y00113
X00588Y00115
Y00158
X00625Y00061
X00731Y00064
Y00082
X00739Y00048
X00755
X00771
X00816Y00115
X00841Y00101
X0085Y00204
X00869
X00887
X00905
X0083
X00811
X00791
X00771
X00756Y00195
X00744Y00182
X00743Y00166
X00742Y00149
Y00133
X00683Y00206
X00695Y00229
X00656
X00669Y00274
X00703
X00739
X00777Y00256
X00809Y00338
X0077Y00366
X00771Y00407
X00737Y00404
X00683
X00637
X00601
X00547
X00594Y00332
X00626
X00638Y0036
X0073Y00328
X00845Y00402
X00864Y00394
X0088Y00387
X00884Y00283
X00512Y0027
X00913Y00266
X00924Y00204
X01Y00203
Y00223
Y00243
Y00263
Y00283
Y00303
Y00323
Y00343
Y00363
Y00383
Y00403
Y00423
Y00183
Y00163
Y00143
Y00123
Y00103
Y00083
Y00063
Y00443
Y00463
Y00483
Y00503
Y00523
Y00543
Y00563
Y00583
Y00603
Y00623
X0095Y00673
X0093
X0091
X0089
X0087
X0085
X0083
X0081
X0079
X0077
X0075
X0073
X0071
X0069
X0067
X0065
X0063
X0061
X0059
X0057
X0055
X0053
X00557Y00537
X00605
X00691
X00737
X00828
X00872
X00463
X00416
X00368Y00545
X00367Y00518
X00368Y0049
X00309Y00487
Y00504
X00292
X00275
X00258
Y00487
Y0047
X00275
Y00487
X00292
Y0047
Y00453
X00275
X00258
X00241
Y0047
Y00487
Y00504
X00309Y0047
Y00453
X00312Y00579
X00342
X00367
X00279Y00578
X0027Y00673
X0025
X0023
X0021
X0019
X0017
X0015
X0013
X0029
X0031
X0033
X0035
X0037
X0039
X0041
X0043
X0045
X0047
X0049
X0051
X0011
X0009
X0007
X00013Y00623
Y00603
Y00583
Y00563
Y00543
Y00523
Y00503
Y00483
Y00463
Y00443
T02
X00649Y00113
X0071Y001735
T03
X00463Y00097
Y00117
Y00137
Y00157
Y00177
T04
X0041602Y0036225
X0044142
X0046682
X0055081
X0057621
X0060161
X006856
X00711
X007364
X0082039
X0084579
X0087119
X008586Y003121
X00884
Y002359
X008586
X009094
Y003121
X0087119Y0043845
X0084579
X0082039
X007364
X00711
X006856
X0060161
X0057621
X0055081
X0046682
X0044142
X0041602
T05
X0022775Y002799
X0030275
T06
X00803Y00046
X00849
X00939Y00632
X00873Y00615
X00818Y00632
X00738Y00615
X00681Y00632
X00604Y00615
X00546Y00632
X00468Y00615
X00415Y00632
X0022Y0062
X00171
T07
X01005Y0001
X0001
X01005Y00675
X0001
M30
